<svg preserveAspectRatio="none" width="100%" height="100%" overflow="visible" style="display: block;" viewBox="0 0 35.1958 34.5137" fill="none" xmlns="http://www.w3.org/2000/svg">
<g id="Group 1686559377">
<rect id="Rectangle 34626192" width="35.1958" height="34.5137" rx="17.2568" fill="var(--fill-0, #FBFDFE)"/>
<path id="Vector" fill-rule="evenodd" clip-rule="evenodd" d="M15.9243 10.1328H18.4577C19.954 10.1328 21.1393 10.1328 22.0666 10.2574C23.0207 10.386 23.7933 10.6563 24.403 11.2652C25.1552 12.0182 25.3954 13.0261 25.4825 14.3343C25.9522 14.5403 26.3072 14.9774 26.3454 15.531C26.3495 15.5807 26.3495 15.6336 26.3495 15.6824V18.8297C26.3495 18.8785 26.3495 18.9314 26.3462 18.9803C26.3072 19.5339 25.9522 19.9719 25.4825 20.1786C25.3954 21.486 25.1552 22.4939 24.403 23.2469C23.7933 23.8559 23.0207 24.1261 22.0666 24.2548C21.1385 24.3793 19.954 24.3793 18.4577 24.3793H15.9243C14.428 24.3793 13.2427 24.3793 12.3155 24.2548C11.3614 24.1261 10.5888 23.8559 9.97904 23.2469C9.37011 22.6372 9.09983 21.8646 8.9712 20.9105C8.84665 19.9824 8.84665 18.7979 8.84665 17.3016V17.2105C8.84665 15.7142 8.84665 14.5289 8.9712 13.6016C9.09983 12.6475 9.37011 11.875 9.97904 11.2652C10.5888 10.6563 11.3614 10.386 12.3155 10.2574C13.2435 10.1328 14.428 10.1328 15.9243 10.1328ZM24.2475 20.3089H22.6698C20.9236 20.3089 19.4289 18.9836 19.4289 17.2561C19.4289 15.5286 20.9236 14.2032 22.669 14.2032H24.2467C24.1539 13.1116 23.9447 12.5344 23.5385 12.129C23.1941 11.7846 22.7219 11.5778 21.903 11.4679C21.0669 11.3556 19.9638 11.3539 18.4113 11.3539H15.9691C14.4166 11.3539 13.3144 11.3556 12.4767 11.4679C11.6585 11.5778 11.1863 11.7846 10.842 12.129C10.4976 12.4733 10.2917 12.9455 10.1817 13.7636C10.0694 14.6005 10.0678 15.7028 10.0678 17.2552C10.0678 18.8077 10.0694 19.9108 10.1817 20.7477C10.2917 21.5658 10.4984 22.038 10.8428 22.3824C11.1871 22.7267 11.6593 22.9335 12.4783 23.0434C13.3152 23.1557 14.4174 23.1574 15.9699 23.1574H18.4122C19.9646 23.1574 21.0677 23.1557 21.9046 23.0434C22.7227 22.9335 23.1949 22.7267 23.5393 22.3824C23.9455 21.9769 24.1547 21.4006 24.2475 20.3081M12.103 13.9997C12.103 13.8378 12.1673 13.6825 12.2818 13.568C12.3963 13.4535 12.5516 13.3892 12.7136 13.3892H15.9699C16.1318 13.3892 16.2871 13.4535 16.4016 13.568C16.5161 13.6825 16.5805 13.8378 16.5805 13.9997C16.5805 14.1617 16.5161 14.3169 16.4016 14.4315C16.2871 14.546 16.1318 14.6103 15.9699 14.6103H12.7136C12.5516 14.6103 12.3963 14.546 12.2818 14.4315C12.1673 14.3169 12.103 14.1617 12.103 13.9997ZM24.863 15.4244H22.6698C21.5106 15.4244 20.6501 16.2865 20.6501 17.2561C20.6501 18.2256 21.5106 19.0878 22.669 19.0878H24.8817C25.0494 19.0772 25.1218 18.964 25.1275 18.8956V15.6165C25.1218 15.5481 25.0494 15.435 24.8817 15.4252L24.863 15.4244Z" fill="#034DA2"/>
</g>
</svg>
