<svg preserveAspectRatio="none" width="100%" height="100%" overflow="visible" style="display: block;" viewBox="0 0 24 22.8966" fill="none" xmlns="http://www.w3.org/2000/svg">
<g id="Group 1686560623">
<path id="Vector" d="M5.73073 7.28204C5.5465 7.96071 5.50009 8.6694 5.59423 9.36629C5.59876 9.39673 5.61088 9.42553 5.62948 9.45004C5.00967 9.61121 4.46983 9.99274 4.11102 10.5232C3.75221 11.0537 3.59902 11.6967 3.68011 12.332C3.76121 12.9673 4.07104 13.5512 4.55161 13.9745C5.03219 14.3978 5.65056 14.6315 6.29098 14.6318H6.86798C6.94811 14.6318 7.02745 14.616 7.10147 14.5853C7.1755 14.5547 7.24276 14.5097 7.2994 14.453C7.35605 14.3964 7.40098 14.3291 7.43162 14.2551C7.46226 14.181 7.47801 14.1017 7.47798 14.0215V9.97279C7.47801 9.89266 7.46226 9.81332 7.43162 9.73928C7.40098 9.66524 7.35605 9.59797 7.2994 9.5413C7.24276 9.48462 7.1755 9.43967 7.10147 9.409C7.02745 9.37833 6.94811 9.36254 6.86798 9.36254H6.29098C6.18078 9.36336 6.07073 9.37104 5.96148 9.38554C5.96697 9.36442 5.96858 9.34249 5.96623 9.32079C5.88203 8.68213 5.92218 8.0332 6.08448 7.40979C6.17835 7.42961 6.27404 7.43958 6.36998 7.43954C6.68985 7.43893 7.00004 7.32979 7.24982 7.12997C7.4996 6.93015 7.67417 6.65148 7.74498 6.33954C7.78928 6.12864 7.84945 5.92138 7.92498 5.71954C8.23832 4.86794 8.80543 4.13299 9.54973 3.61393C10.294 3.09487 11.1797 2.8167 12.0871 2.81697C12.9945 2.81724 13.88 3.09595 14.624 3.61546C15.368 4.13496 15.9347 4.87025 16.2475 5.72204C16.3234 5.92291 16.3835 6.12936 16.4275 6.33954C16.4969 6.65221 16.6711 6.93176 16.9211 7.13183C17.1712 7.33191 17.4822 7.44048 17.8025 7.43954C17.8977 7.43921 17.9926 7.42908 18.0857 7.40929C18.2483 8.03283 18.2885 8.68195 18.2042 9.32079C18.2009 9.35239 18.206 9.38429 18.219 9.41329C18.0512 9.38 17.8805 9.36325 17.7095 9.36329H17.0772C17.0044 9.36326 16.9322 9.37759 16.8649 9.40545C16.7976 9.43332 16.7364 9.47418 16.6849 9.5257C16.6334 9.57722 16.5925 9.63839 16.5646 9.70571C16.5368 9.77303 16.5224 9.84518 16.5225 9.91804V14.077C16.5225 14.2242 16.5809 14.3653 16.685 14.4693C16.789 14.5733 16.9301 14.6318 17.0772 14.6318H17.7095C17.8894 14.6317 18.0688 14.6133 18.245 14.5768V15.5888C18.2448 15.7969 18.162 15.9965 18.0148 16.1437C17.8677 16.2908 17.6681 16.3736 17.46 16.3738H13.1462C13.1099 16.1431 12.9924 15.933 12.815 15.7812C12.6375 15.6293 12.4118 15.5458 12.1782 15.5455H11.017C10.7561 15.5455 10.5059 15.6492 10.3214 15.8337C10.1369 16.0182 10.0332 16.2684 10.0332 16.5293C10.0332 16.7902 10.1369 17.0404 10.3214 17.2249C10.5059 17.4094 10.7561 17.513 11.017 17.513H12.1782C12.4009 17.5131 12.617 17.4373 12.791 17.2982C12.965 17.1592 13.0865 16.965 13.1355 16.7478H17.4605C17.768 16.7475 18.0629 16.6251 18.2804 16.4077C18.4978 16.1902 18.6201 15.8953 18.6205 15.5878V14.5298C18.6197 14.5096 18.6157 14.4897 18.6085 14.4708C19.1244 14.2825 19.5687 13.9377 19.879 13.4845C20.1893 13.0313 20.3502 12.4924 20.3392 11.9433C20.3281 11.3942 20.1458 10.8622 19.8175 10.4218C19.4893 9.98148 19.0316 9.65473 18.5085 9.48729C18.5459 9.45723 18.5701 9.41387 18.5762 9.36629C18.6703 8.66956 18.6239 7.96105 18.4397 7.28254C18.6125 7.19364 18.765 7.06987 18.8875 6.91904C19.0235 6.74984 19.1199 6.55233 19.1697 6.34101C19.2194 6.12969 19.2212 5.90991 19.175 5.69779L19.1675 5.66279C19.1625 5.64279 19.1575 5.62529 19.1525 5.60529C19.1523 5.59721 19.1497 5.58937 19.145 5.58279C18.768 3.99144 17.8644 2.57414 16.5808 1.56076C15.2973 0.547393 13.709 -0.00259583 12.0736 9.21171e-06C10.4382 0.00261426 8.85164 0.557661 7.57129 1.57512C6.29094 2.59257 5.39189 4.01275 5.01998 5.60529C5.01498 5.62529 5.00998 5.64279 5.00498 5.66279L4.99498 5.70779C4.97442 5.80987 4.96354 5.91367 4.96248 6.01779C4.96255 6.27865 5.03423 6.53449 5.16969 6.75742C5.30516 6.98035 5.49922 7.16182 5.73073 7.28204Z" fill="var(--fill-0, #034DA2)"/>
<path id="Vector_2" d="M15.7286 5.46654H8.44107C8.38031 5.58858 8.32607 5.71376 8.27857 5.84154H15.8911C15.8436 5.71404 15.7886 5.58904 15.7286 5.46654Z" fill="var(--fill-0, #F5821E)"/>
<path id="Vector_3" d="M23.3 19.2265H22.5485V7.65654C22.5478 7.07592 22.3169 6.51927 21.9063 6.10871C21.4958 5.69815 20.9391 5.46721 20.3585 5.46654H19.5185L19.521 5.46904L19.5235 5.54404L19.541 5.61904C19.556 5.69404 19.5685 5.76654 19.576 5.84154H20.3585C20.8396 5.84234 21.3008 6.03381 21.641 6.37402C21.9812 6.71423 22.1727 7.17542 22.1735 7.65654V19.2265H15.045H15.0387C14.979 19.2267 14.9193 19.2306 14.86 19.2383C14.852 19.2383 14.8445 19.2418 14.8365 19.243C14.6087 19.2739 14.3927 19.3628 14.2093 19.5013C14.203 19.5058 14.196 19.5095 14.1895 19.5143C14.1762 19.5245 14.1645 19.5365 14.1517 19.5468C14.0213 19.6521 13.9106 19.7799 13.825 19.924C13.7796 20.002 13.724 20.0736 13.6597 20.137C13.502 20.292 13.299 20.3928 13.0802 20.425C13.0765 20.425 13.0728 20.4268 13.069 20.4273C13.0241 20.4334 12.9788 20.4365 12.9335 20.4365H10.556C10.511 20.4365 10.4661 20.4336 10.4215 20.4278H10.42C10.3978 20.425 10.3762 20.4193 10.3542 20.415C10.2566 20.3958 10.1623 20.3627 10.074 20.3168C10.0625 20.3105 10.049 20.3058 10.0385 20.2993C9.9994 20.2768 9.96182 20.2517 9.926 20.2243C9.92375 20.2228 9.922 20.2205 9.91975 20.219C9.81531 20.1383 9.72745 20.0381 9.661 19.924C9.61463 19.8467 9.5607 19.774 9.5 19.7073C9.31244 19.4938 9.06481 19.3418 8.7895 19.2713C8.6765 19.2419 8.56025 19.2269 8.4435 19.2265H1.831V7.65154C1.83133 7.1716 2.02213 6.71142 2.3615 6.37205C2.70087 6.03268 3.16106 5.84188 3.641 5.84154H4.5985C4.6035 5.77654 4.6135 5.70904 4.626 5.63654L4.6385 5.58154L4.651 5.53654C4.65565 5.51293 4.66149 5.48957 4.6685 5.46654H3.641C3.06168 5.46714 2.50627 5.69754 2.09663 6.10717C1.68699 6.51681 1.4566 7.07223 1.456 7.65154V19.2265H0.7025C0.610365 19.2262 0.519071 19.2441 0.433854 19.2791C0.348637 19.3141 0.271174 19.3656 0.205908 19.4307C0.140642 19.4957 0.088857 19.573 0.0535225 19.6581C0.0181879 19.7432 -5.8759e-07 19.8344 0 19.9265C0 21.7865 1.3925 22.8965 3.7225 22.8965H20.28C22.61 22.8965 24 21.7865 24 19.9265C24 19.8346 23.9819 19.7436 23.9467 19.6587C23.9115 19.5737 23.86 19.4966 23.795 19.4316C23.73 19.3666 23.6528 19.315 23.5679 19.2798C23.483 19.2447 23.3919 19.2265 23.3 19.2265ZM3.0875 21.5165C2.97451 21.5168 2.86398 21.4835 2.7699 21.4209C2.67581 21.3584 2.6024 21.2693 2.55894 21.165C2.51548 21.0607 2.50393 20.9458 2.52575 20.835C2.54757 20.7241 2.60178 20.6222 2.68152 20.5422C2.76126 20.4621 2.86295 20.4075 2.97373 20.3852C3.08451 20.363 3.1994 20.3741 3.30388 20.4171C3.40835 20.4602 3.49771 20.5332 3.56065 20.6271C3.6236 20.7209 3.6573 20.8313 3.6575 20.9443C3.65763 21.0957 3.59769 21.241 3.49083 21.3483C3.38397 21.4556 3.23892 21.5161 3.0875 21.5165ZM5.4505 21.5165C5.33751 21.5168 5.22698 21.4835 5.13289 21.4209C5.03881 21.3584 4.9654 21.2693 4.92194 21.165C4.87848 21.0607 4.86693 20.9458 4.88875 20.835C4.91057 20.7241 4.96478 20.6222 5.04452 20.5422C5.12426 20.4621 5.22595 20.4075 5.33673 20.3852C5.44751 20.363 5.5624 20.3741 5.66688 20.4171C5.77135 20.4602 5.86071 20.5332 5.92365 20.6271C5.9866 20.7209 6.0203 20.8313 6.0205 20.9443C6.02063 21.0958 5.96063 21.2412 5.85366 21.3485C5.74669 21.4558 5.60151 21.5162 5.45 21.5165H5.4505Z" fill="var(--fill-0, #F5821E)"/>
</g>
</svg>
