<svg preserveAspectRatio="none" width="100%" height="100%" overflow="visible" style="display: block;" viewBox="0 0 16 18.9862" fill="none" xmlns="http://www.w3.org/2000/svg">
<g id="Group 1686560629">
<path id="Vector" d="M15.2249 5.06918L9.24568 0.425585C8.88904 0.14969 8.4509 0 8 0C7.5491 0 7.11096 0.14969 6.75433 0.425585L0.775086 5.06918C0.533858 5.25542 0.338551 5.4945 0.204182 5.76804C0.0698139 6.04157 -3.71156e-05 6.34228 1.47951e-08 6.64704V16.9792C0.000578765 17.2438 0.0533433 17.5056 0.155271 17.7497C0.257199 17.9939 0.406289 18.2155 0.594 18.4019C0.781711 18.5884 1.00436 18.7359 1.24918 18.8362C1.49401 18.9364 1.75621 18.9874 2.02076 18.9861H4.60208V13.609C4.60195 13.1146 4.79782 12.6403 5.14677 12.29C5.49571 11.9398 5.96927 11.7422 6.46367 11.7405H9.53633C10.0307 11.7422 10.5043 11.9398 10.8532 12.29C11.2022 12.6403 11.398 13.1146 11.3979 13.609V18.9861H13.9792C14.2438 18.9874 14.506 18.9364 14.7508 18.8362C14.9956 18.7359 15.2183 18.5884 15.406 18.4019C15.5937 18.2155 15.7428 17.9939 15.8447 17.7497C15.9467 17.5056 15.9994 17.2438 16 16.9792V6.64704C16 6.34228 15.9302 6.04157 15.7958 5.76804C15.6615 5.4945 15.4661 5.25542 15.2249 5.06918ZM10.7059 10.7785H5.29412C5.11236 10.7758 4.93895 10.7017 4.81137 10.5722C4.68378 10.4428 4.61227 10.2683 4.61227 10.0865C4.61227 9.9047 4.68378 9.73022 4.81137 9.60073C4.93895 9.47124 5.11236 9.39714 5.29412 9.39444H10.7059C10.8876 9.39714 11.0611 9.47124 11.1886 9.60073C11.3162 9.73022 11.3877 9.9047 11.3877 10.0865C11.3877 10.2683 11.3162 10.4428 11.1886 10.5722C11.0611 10.7017 10.8876 10.7758 10.7059 10.7785Z" fill="var(--fill-0, white)" fill-opacity="0.6"/>
<path id="Vector_2" d="M6.46378 13.1246H9.53644C9.59964 13.1249 9.66216 13.1377 9.7204 13.1623C9.77864 13.1868 9.83146 13.2226 9.87582 13.2676C9.92019 13.3126 9.95523 13.366 9.97893 13.4246C10.0026 13.4831 10.0145 13.5458 10.014 13.609V18.9862H5.98627V13.609C5.98568 13.5458 5.99758 13.4831 6.02129 13.4246C6.04499 13.366 6.08003 13.3126 6.1244 13.2676C6.16877 13.2226 6.22159 13.1868 6.27982 13.1623C6.33806 13.1377 6.40058 13.1249 6.46378 13.1246Z" fill="var(--fill-0, white)"/>
</g>
</svg>
