<svg preserveAspectRatio="none" width="100%" height="100%" overflow="visible" style="display: block;" viewBox="0 0 14.4515 17.7047" fill="none" xmlns="http://www.w3.org/2000/svg">
<g id="Group 1686559329">
<path id="Vector" d="M2.34126 14.5494V7.2226C2.34126 5.92714 2.85587 4.68475 3.7719 3.76873C4.68792 2.8527 5.93032 2.33808 7.22577 2.33808C8.52122 2.33808 9.76362 2.8527 10.6796 3.76873C11.5957 4.68475 12.1103 5.92714 12.1103 7.2226V14.5494M2.34126 14.5494H12.1103M2.34126 14.5494H0.713084M12.1103 14.5494H13.7385M6.41168 16.9916H8.03985" stroke="#034DA2" stroke-width="1.42617" stroke-linecap="round" stroke-linejoin="round"/>
<path id="Vector_2" d="M7.22541 2.34126C7.67502 2.34126 8.0395 1.97678 8.0395 1.52717C8.0395 1.07756 7.67502 0.713084 7.22541 0.713084C6.77581 0.713084 6.41133 1.07756 6.41133 1.52717C6.41133 1.97678 6.77581 2.34126 7.22541 2.34126Z" stroke="#034DA2" stroke-width="1.42617"/>
</g>
</svg>
