<svg preserveAspectRatio="none" width="100%" height="100%" overflow="visible" style="display: block;" viewBox="0 0 15.8522 19" fill="none" xmlns="http://www.w3.org/2000/svg">
<g id="Group 1171277573">
<path id="Vector" fill-rule="evenodd" clip-rule="evenodd" d="M13.9416 18.0443V16.5722C13.8847 16.6102 13.8286 16.6473 13.7725 16.6844C13.587 16.8081 13.8661 16.8215 13.6896 16.9806V17.91L1.91241 18.0442C1.91241 19.0239 0.539556 18.8961 0.512344 18.0442V0.306449H13.6896V7.54065C13.9082 7.67177 13.6686 7.77156 13.9415 7.84824V0H0V18.0442C0 18.5704 0.431299 19 0.956583 19H14.8964C15.4225 19 15.8522 18.5703 15.8522 18.0442L13.9416 18.0443ZM8.27208 3.34147H7.36661V4.24694H6.57577V3.34147H5.67029V2.55063H6.57577V1.64515H7.36661V2.55063H8.27208V3.34147ZM3.9732 6.43542C3.75466 6.43542 3.53603 6.39437 3.53603 6.17583C3.53603 5.9573 3.72323 5.99456 3.94176 5.99456H11.9986C12.2171 5.99456 12.3845 5.9573 12.3845 6.17583C12.3845 6.39437 12.2485 6.43542 12.03 6.43542H3.9732ZM3.9767 9.29254C3.75816 9.29254 3.53603 9.30051 3.53603 9.08198C3.53603 8.86428 3.71333 8.88701 3.93186 8.88701H8.28348C8.10206 9.10884 8.0232 8.99401 7.98279 9.29254H3.9767ZM3.93186 12.2332C3.71332 12.2332 3.53603 12.2075 3.53603 11.9898C3.53603 11.7713 3.65901 11.645 3.87755 11.645H7.86711V12.2332H3.93186Z" fill="#034DA2"/>
<path id="Vector_2" fill-rule="evenodd" clip-rule="evenodd" d="M13.2702 8.84755C12.9152 9.14494 12.3749 9.29004 11.7034 9.37236C11.4004 9.4094 11.176 9.64453 11.176 9.92751V12.0592C11.176 13.241 12.7129 13.7169 13.2506 14.3024C13.2933 14.3492 13.3499 14.3729 13.4157 14.3729C13.4816 14.3729 13.5382 14.3492 13.5809 14.3024C14.119 13.7169 15.6554 13.241 15.6554 12.0592V9.92803C15.6554 9.64506 15.4321 9.40992 15.129 9.37288C14.4576 9.29005 13.9174 9.14547 13.5614 8.84808C13.4785 8.77862 13.3535 8.77861 13.2702 8.84755ZM12.1984 12.0087C12.1007 11.914 12.0971 11.7587 12.1912 11.6609C12.2859 11.5631 12.4418 11.5595 12.5401 11.6537L12.9887 12.0849L14.275 10.5655C14.363 10.4621 14.5189 10.4492 14.6223 10.5367C14.7267 10.6247 14.7391 10.7806 14.6511 10.884L13.196 12.603H13.1955C13.193 12.6071 13.1894 12.6107 13.1852 12.6148C13.0916 12.7126 12.9352 12.7157 12.8374 12.621L12.1984 12.0087Z" fill="#F5821E"/>
</g>
</svg>
