<svg preserveAspectRatio="none" width="100%" height="100%" overflow="visible" style="display: block;" viewBox="0 0 23.3921 18" fill="none" xmlns="http://www.w3.org/2000/svg">
<g id="Group 1686560638">
<path id="Vector" d="M23.2091 14.2026C23.0678 14.0377 22.8597 13.9474 22.6437 13.9474H19.8753V3.69883C19.8753 3.6792 19.8753 3.66349 19.8714 3.64386C19.8439 1.80225 18.4617 0.239401 16.6318 0.00392667C16.6161 0.00392667 16.6004 0 16.5847 0H3.2576C3.24189 0 3.22619 0 3.21048 0.00392667C1.54165 0.227746 0.222189 1.5471 0.00631678 3.21211C-0.0211712 3.42415 0.0416555 3.63619 0.183016 3.79718C0.324376 3.9621 0.532483 4.05241 0.748456 4.05241H5.9867V8.15977L5.96706 8.17547C5.08357 8.91761 4.01159 9.39276 2.87297 9.55374C2.69627 9.5773 2.56668 9.72652 2.56668 9.90321V11.949C2.56668 13.6689 3.33631 15.271 4.67922 16.3469L6.07319 17.466C6.13994 17.517 6.21455 17.5445 6.29308 17.5445C6.37162 17.5445 6.45015 17.517 6.51298 17.466L7.12162 16.9751C7.6949 17.5327 8.42919 17.89 9.22631 17.9961C9.24202 17.9961 9.28521 18 9.30092 18H20.1345C20.1502 18 20.1659 18 20.1816 17.9961C21.8505 17.7723 23.1699 16.4529 23.3858 14.7879C23.4133 14.5758 23.3505 14.3636 23.2091 14.2026ZM0.705358 3.30619C0.878132 1.96325 1.93832 0.899145 3.28125 0.706669H3.37549C3.38335 0.706669 3.39513 0.710596 3.40298 0.710596C3.55612 0.734156 3.70928 0.765569 3.85456 0.812689C3.86634 0.816616 3.87419 0.816616 3.88597 0.820542C4.03125 0.867662 4.16869 0.926564 4.30218 0.993316C4.32182 1.00117 4.33752 1.00902 4.35716 1.0208C4.48674 1.08756 4.60846 1.16609 4.72233 1.24855C4.74196 1.26426 4.7616 1.27604 4.78123 1.29175C4.8951 1.37813 5.00113 1.47237 5.09929 1.57055C5.11499 1.58625 5.1307 1.60588 5.14641 1.62159C5.24457 1.72368 5.33881 1.83756 5.42129 1.95143C5.43307 1.96714 5.44092 1.98284 5.4527 1.99855C5.53516 2.12028 5.61369 2.24986 5.68045 2.38335L5.69223 2.40691C5.75505 2.54435 5.81003 2.68571 5.85322 2.83099C5.85715 2.84277 5.86107 2.85063 5.865 2.86241C5.90819 3.00769 5.93568 3.15691 5.95531 3.30611C5.95531 3.31789 5.95924 3.3336 5.95924 3.34538H0.748642L0.705358 3.30619ZM6.29292 16.7393L5.11884 15.7969C3.94476 14.8545 3.27329 13.4527 3.27329 11.9489V10.2054C4.3806 10.0013 5.41332 9.52614 6.29299 8.82326L6.43435 8.92928C6.4854 8.96854 6.53645 9.00781 6.58749 9.04315C6.6621 9.09812 6.74063 9.14524 6.81524 9.19629C6.86629 9.2277 6.91733 9.26304 6.96838 9.29446C7.05084 9.3455 7.14116 9.39655 7.22753 9.44367C7.27465 9.47116 7.32177 9.49864 7.36889 9.5222C7.5024 9.59288 7.63982 9.66356 7.78118 9.72639C8.26022 9.94236 8.77463 10.1034 9.3126 10.2015V11.9489C9.3126 13.4567 8.64113 14.8585 7.46705 15.7969L6.93694 16.221L6.93302 16.2249L6.29292 16.7393ZM7.90678 16.3466C9.24972 15.2747 10.0193 13.6687 10.0193 11.9488V9.90297C10.0193 9.72627 9.88974 9.57705 9.71697 9.5535C9.13583 9.47104 8.58217 9.31005 8.07169 9.0823C7.83609 8.97628 7.60833 8.85456 7.38844 8.72105C7.37273 8.70927 7.3531 8.70142 7.33739 8.69356C7.12928 8.56398 6.92902 8.42263 6.74054 8.26948L6.69342 8.23414V3.69881C6.69342 3.56137 6.68557 3.42787 6.66986 3.29043C6.66593 3.25116 6.65808 3.20797 6.65415 3.1687C6.64237 3.07446 6.62274 2.98022 6.60311 2.88598C6.59525 2.84279 6.58347 2.80352 6.57562 2.76033C6.54813 2.65824 6.51672 2.55614 6.48138 2.45404C6.47353 2.43048 6.46567 2.40692 6.45782 2.37943C6.4107 2.2577 6.35965 2.1399 6.30075 2.02604C6.28505 1.99463 6.26541 1.96321 6.24971 1.9318C6.20259 1.84541 6.15547 1.76295 6.10442 1.68442L6.03374 1.5784C5.97877 1.49986 5.92379 1.42526 5.86489 1.35065C5.84133 1.32316 5.8217 1.29568 5.79814 1.26819C5.71568 1.17003 5.62537 1.07971 5.53505 0.989392C5.51541 0.973685 5.49578 0.957978 5.47615 0.938346C5.39761 0.867666 5.31908 0.800911 5.23662 0.738085C5.22091 0.726305 5.20913 0.714525 5.19735 0.702746H16.573C18.0573 0.906933 19.1763 2.19096 19.1763 3.69481C19.1763 3.71444 19.1763 3.73015 19.1802 3.74585V13.9474H12.607C12.2222 13.9474 11.9042 14.234 11.8649 14.611C11.8492 14.7838 11.8139 14.9566 11.7707 15.1175C11.7667 15.1372 11.755 15.1529 11.751 15.1725C11.4644 16.1306 10.7222 16.8845 9.76415 17.183C9.7563 17.1869 9.74845 17.1869 9.73666 17.1869C9.58745 17.2301 9.43824 17.2654 9.28117 17.2851C8.6804 17.1987 8.12672 16.9356 7.67909 16.5272L7.90678 16.3466ZM22.6866 14.6935C22.5139 16.0364 21.4537 17.1045 20.1108 17.293H11.0911C11.1029 17.2852 11.1107 17.2773 11.1186 17.2695C11.201 17.2066 11.2796 17.1438 11.3542 17.0771C11.3817 17.0535 11.4092 17.026 11.4366 16.9985C11.4955 16.9436 11.5505 16.8847 11.6055 16.8297C11.633 16.7983 11.6605 16.7708 11.6879 16.7394C11.7429 16.6765 11.794 16.6137 11.8411 16.547C11.8607 16.5195 11.8843 16.492 11.9039 16.4606C11.9707 16.3663 12.0335 16.2682 12.0924 16.1661C12.0963 16.1582 12.1002 16.1464 12.1081 16.1386C12.1591 16.0443 12.2102 15.9501 12.2534 15.8519C12.2691 15.8166 12.2809 15.7813 12.2966 15.7459C12.328 15.6713 12.3555 15.5928 12.383 15.5182C12.3947 15.4789 12.4105 15.4396 12.4222 15.3964C12.4458 15.3179 12.4694 15.2355 12.4851 15.153C12.4929 15.1177 12.5047 15.0784 12.5126 15.043C12.5361 14.9252 12.5557 14.8035 12.5675 14.6818C12.5715 14.6543 12.6029 14.6543 12.6029 14.6543L22.6747 14.67C22.6865 14.6818 22.6866 14.6896 22.6866 14.6935ZM8.64487 4.87696C8.64487 4.68062 8.80194 4.52357 8.99826 4.52357H16.8594C17.0557 4.52357 17.2128 4.68064 17.2128 4.87696C17.2128 5.07328 17.0557 5.23034 16.8594 5.23034H8.99826C8.80585 5.23034 8.64487 5.07328 8.64487 4.87696ZM16.8634 7.69235H8.99821C8.80188 7.69235 8.64482 7.53528 8.64482 7.33896C8.64482 7.14264 8.80189 6.98557 8.99821 6.98557H16.8593C17.0557 6.98557 17.2127 7.14264 17.2127 7.33896C17.2127 7.53528 17.0558 7.69235 16.8634 7.69235ZM17.2168 9.80097C17.2168 9.9973 17.0597 10.1544 16.8634 10.1544H11.1305C10.9342 10.1544 10.7772 9.99729 10.7772 9.80097C10.7772 9.60464 10.9342 9.44758 11.1305 9.44758H16.8634C17.0558 9.44758 17.2168 9.60857 17.2168 9.80097ZM17.2168 12.263C17.2168 12.4593 17.0597 12.6164 16.8634 12.6164H11.1305C10.9342 12.6164 10.7772 12.4593 10.7772 12.263C10.7772 12.0667 10.9342 11.9096 11.1305 11.9096H16.8634C17.0558 11.9096 17.2168 12.0706 17.2168 12.263Z" fill="#034DA2"/>
<path id="Vector_2" fill-rule="evenodd" clip-rule="evenodd" d="M6.33628 7.90868C5.69908 8.44245 4.72941 8.70288 3.52417 8.85064C2.98024 8.91713 2.5776 9.33916 2.5776 9.84706V13.6731C2.5776 15.7944 5.33604 16.6486 6.30107 17.6994C6.37772 17.7835 6.4793 17.826 6.59751 17.826C6.71571 17.826 6.8173 17.7835 6.89394 17.6994C7.8599 16.6485 10.6174 15.7943 10.6174 13.6731V9.84801C10.6174 9.3401 10.2166 8.91806 9.67269 8.85158C8.46754 8.7029 7.4979 8.44339 6.85893 7.90963C6.71025 7.78496 6.48588 7.78494 6.33628 7.90868ZM4.41267 13.5825C4.23721 13.4126 4.23075 13.1337 4.39974 12.9583C4.56966 12.7828 4.84947 12.7763 5.02585 12.9453L5.83112 13.7192L8.13981 10.9922C8.29772 10.8066 8.57755 10.7835 8.76315 10.9405C8.95062 11.0984 8.97278 11.3782 8.81487 11.5638L6.20324 14.6492H6.20231C6.1977 14.6566 6.19123 14.6631 6.18385 14.6705C6.01577 14.8459 5.73504 14.8515 5.55958 14.6816L4.41267 13.5825Z" fill="#F5821E"/>
</g>
</svg>
