<svg preserveAspectRatio="none" width="100%" height="100%" overflow="visible" style="display: block;" viewBox="0 0 13.4203 22" fill="none" xmlns="http://www.w3.org/2000/svg">
<g id="Group 1171277565">
<path id="Vector" d="M13.051 7.59794V6.46392C13.051 5.26186 12.1399 4.24124 10.9333 3.94639C10.7116 3.3567 10.5885 2.4268 10.5885 1.70103C10.5885 0.771134 9.75128 0 8.74168 0H4.30928C3.29968 0 2.46245 0.771134 2.46245 1.70103C2.46245 2.4268 2.33932 3.3567 2.1177 3.94639C0.911106 4.24124 0 5.26186 0 6.46392V15.5361C0 16.7381 0.911106 17.7588 2.1177 18.0536C2.33932 18.6433 2.46245 19.5732 2.46245 20.299C2.46245 21.2289 3.29968 22 4.30928 22H8.74168C9.75128 22 10.5885 21.2289 10.5885 20.299C10.5885 19.5732 10.7116 18.6433 10.9333 18.0536C12.1399 17.7588 13.051 16.7381 13.051 15.5361V9.86598C13.248 9.86598 13.4203 9.70722 13.4203 9.52577V7.93814C13.4203 7.7567 13.248 7.59794 13.051 7.59794ZM3.20118 1.70103C3.20118 1.13402 3.69367 0.680412 4.30928 0.680412H8.74168C9.35729 0.680412 9.84978 1.13402 9.84978 1.70103C9.84978 2.01856 9.8744 3.01649 10.1206 3.85567H2.90569C3.17655 3.01649 3.20118 2.01856 3.20118 1.70103ZM9.84978 20.299C9.84978 20.866 9.35729 21.3196 8.74168 21.3196H4.30928C3.69367 21.3196 3.20118 20.866 3.20118 20.299C3.20118 19.9814 3.17655 18.9835 2.93031 18.1443H10.1453C9.8744 18.9835 9.84978 19.9814 9.84978 20.299ZM12.3122 15.5361C12.3122 16.6021 11.3765 17.4639 10.2191 17.4639H2.83181C1.67446 17.4639 0.738734 16.6021 0.738734 15.5361V6.46392C0.738734 5.39794 1.67446 4.53608 2.83181 4.53608H10.2191C11.3765 4.53608 12.3122 5.39794 12.3122 6.46392V15.5361Z" fill="var(--fill-0, #034DA2)"/>
<path id="Vector_2" d="M9.11612 9.18615C9.11612 9.00471 8.94375 8.84594 8.74675 8.84594H7.51553C7.31853 8.84594 7.14616 9.00471 7.14616 9.18615V10.2068H6.28431C6.08731 10.2068 5.91494 10.3655 5.91494 10.547V11.5676H5.05308C4.85609 11.5676 4.68372 11.7264 4.68372 11.9078V12.7016H3.94498V8.84594C3.94498 8.72068 3.84344 8.61914 3.71818 8.61914H3.43305C3.30779 8.61914 3.20625 8.72068 3.20625 8.84594V13.382H9.62805C9.75331 13.382 9.85485 13.2805 9.85485 13.1552V12.9284C9.85485 12.8032 9.75331 12.7016 9.62805 12.7016H9.11612V9.18615ZM5.91494 12.7016H5.42245V12.248H5.91494V12.7016ZM7.14616 12.7016H6.65367V10.8872H7.14616V12.7016ZM8.37738 12.7016H7.88489V9.52636H8.37738V12.7016Z" fill="var(--fill-0, #F5821E)"/>
</g>
</svg>
