<svg preserveAspectRatio="none" width="100%" height="100%" overflow="visible" style="display: block;" viewBox="0 0 96.5121 55.3963" fill="none" xmlns="http://www.w3.org/2000/svg">
<g id="OBJECT" clip-path="url(#clip0_0_103)">
<path id="Vector" d="M40.3594 55.3929C62.6493 55.3929 80.7188 54.2439 80.7188 52.8265C80.7188 51.4092 62.6493 50.2602 40.3594 50.2602C18.0695 50.2602 0 51.4092 0 52.8265C0 54.2439 18.0695 55.3929 40.3594 55.3929Z" fill="var(--fill-0, #2D5B93)"/>
<path id="Vector_2" d="M39.8698 38.4245C47.8332 38.4245 54.2887 37.7639 54.2887 36.9489C54.2887 36.1339 47.8332 35.4732 39.8698 35.4732C31.9065 35.4732 25.4509 36.1339 25.4509 36.9489C25.4509 37.7639 31.9065 38.4245 39.8698 38.4245Z" fill="var(--fill-0, #DCE6F9)"/>
<path id="Vector_3" d="M59.8735 52.3605H7.98915V9.74543H58.9314C60.7414 9.74543 62.2103 11.2143 62.2103 13.0243V50.0238C62.2103 51.3137 61.1635 52.3605 59.8735 52.3605Z" fill="var(--fill-0, #D77637)"/>
<path id="Vector_4" d="M58.2766 9.74543H6.50697C5.15288 9.74543 4.05542 10.8429 4.05542 12.197C4.05542 13.5511 5.15288 14.6485 6.50697 14.6485H58.2732V9.74205L58.2766 9.74543Z" fill="var(--fill-0, #FF945F)"/>
<path id="Vector_5" d="M58.2731 9.74543H30.7083V14.6519H58.2731V9.74543Z" fill="var(--fill-0, #F77F4B)"/>
<path id="Vector_6" d="M59.8734 52.3605H57.5367V9.74543H59.8734C61.1633 9.74543 62.2102 10.7922 62.2102 12.0822V50.0238C62.2102 51.3137 61.1633 52.3605 59.8734 52.3605Z" fill="var(--fill-0, #F77F4B)"/>
<path id="Vector_7" d="M59.0463 11.373H7.33412C6.87825 11.373 6.5068 11.7445 6.5068 12.2003C6.5068 12.6562 6.87825 13.0277 7.33412 13.0277H56.4462V14.6519H59.0463V52.3605H59.8736C60.164 52.3605 60.4443 52.3031 60.7009 52.2052V13.0277C60.7009 12.1126 59.9614 11.373 59.0463 11.373Z" fill="var(--fill-0, #C4581C)"/>
<path id="Vector_8" d="M19.6698 20.0784C24.349 20.0784 28.1422 16.2852 28.1422 11.6061C28.1422 6.9269 24.349 3.13369 19.6698 3.13369C14.9907 3.13369 11.1975 6.9269 11.1975 11.6061C11.1975 16.2852 14.9907 20.0784 19.6698 20.0784Z" fill="var(--fill-0, #F7CE00)"/>
<path id="Vector_9" d="M28.1387 11.6061C28.1387 6.92583 24.3466 3.13369 19.6664 3.13369V20.0784C24.3466 20.0784 28.1387 16.2863 28.1387 11.6061Z" fill="var(--fill-0, #F7BF00)"/>
<path id="Vector_10" d="M19.6697 18.2921C23.3623 18.2921 26.3558 15.2987 26.3558 11.6061C26.3558 7.91347 23.3623 4.92002 19.6697 4.92002C15.9771 4.92002 12.9837 7.91347 12.9837 11.6061C12.9837 15.2987 15.9771 18.2921 19.6697 18.2921Z" fill="var(--fill-0, #F7BF00)"/>
<path id="Vector_11" d="M26.3524 11.6061C26.3524 7.91524 23.3606 4.92002 19.6664 4.92002V18.2887C23.3572 18.2887 26.3524 15.2969 26.3524 11.6027V11.6061Z" fill="var(--fill-0, #F7AE00)"/>
<path id="Vector_12" d="M19.6697 4.92002C15.9789 4.92002 12.9837 7.91186 12.9837 11.6061C12.9837 15.3003 15.9755 18.2921 19.6697 18.2921C23.3639 18.2921 26.3558 15.3003 26.3558 11.6061C26.3558 7.91186 23.3639 4.92002 19.6697 4.92002ZM19.6697 17.7788C16.2626 17.7788 13.497 15.0166 13.497 11.6061C13.497 8.19551 16.2592 5.4333 19.6697 5.4333C23.0803 5.4333 25.8425 8.19551 25.8425 11.6061C25.8425 15.0166 23.0803 17.7788 19.6697 17.7788Z" fill="var(--fill-0, #F7AE00)"/>
<path id="Vector_13" d="M25.2111 7.86796C24.7315 7.15546 24.117 6.54426 23.4045 6.06138C22.3374 5.34212 21.0508 4.92002 19.6664 4.92002V5.4333C23.0735 5.4333 25.8391 8.19551 25.8391 11.6061C25.8391 15.0166 23.0769 17.7788 19.6664 17.7788V18.2921C22.0605 18.2921 24.1541 17.0292 25.336 15.1382C25.9742 14.1117 26.3524 12.9061 26.3524 11.6094C26.3524 10.225 25.9303 8.93841 25.2111 7.87134V7.86796Z" fill="var(--fill-0, #F79C00)"/>
<path id="Vector_14" d="M35.9257 16.9447C40.6049 16.9447 44.3981 13.1515 44.3981 8.47238C44.3981 3.79322 40.6049 6.2701e-06 35.9257 6.2701e-06C31.2466 6.2701e-06 27.4534 3.79322 27.4534 8.47238C27.4534 13.1515 31.2466 16.9447 35.9257 16.9447Z" fill="var(--fill-0, #F7CE00)"/>
<path id="Vector_15" d="M44.3978 8.47238C44.3978 3.79214 40.6057 6.2701e-06 35.9254 6.2701e-06V16.9447C40.6057 16.9447 44.3978 13.1526 44.3978 8.47238Z" fill="var(--fill-0, #F7BF00)"/>
<path id="Vector_16" d="M35.9254 15.1584C39.618 15.1584 42.6115 12.165 42.6115 8.47238C42.6115 4.77978 39.618 1.78633 35.9254 1.78633C32.2328 1.78633 29.2394 4.77978 29.2394 8.47238C29.2394 12.165 32.2328 15.1584 35.9254 15.1584Z" fill="var(--fill-0, #F7BF00)"/>
<path id="Vector_17" d="M42.6115 8.47238C42.6115 4.78155 39.6196 1.78633 35.9254 1.78633V15.1551C39.6163 15.1551 42.6115 12.1632 42.6115 8.46901V8.47238Z" fill="var(--fill-0, #F7AE00)"/>
<path id="Vector_18" d="M35.9254 1.78633C32.2346 1.78633 29.2394 4.77817 29.2394 8.47238C29.2394 12.1666 32.2312 15.1584 35.9254 15.1584C39.6196 15.1584 42.6115 12.1666 42.6115 8.47238C42.6115 4.77817 39.6196 1.78633 35.9254 1.78633ZM35.9254 14.6418C32.5182 14.6418 29.7526 11.8796 29.7526 8.46901C29.7526 5.05845 32.5149 2.29623 35.9254 2.29623C39.336 2.29623 42.0982 5.05845 42.0982 8.46901C42.0982 11.8796 39.336 14.6418 35.9254 14.6418Z" fill="var(--fill-0, #F7AE00)"/>
<path id="Vector_19" d="M41.4701 4.73427C40.9906 4.02177 40.376 3.41057 39.6635 2.92769C38.5965 2.20843 37.3099 1.78633 35.9254 1.78633V2.29961C39.3326 2.29961 42.0982 5.06182 42.0982 8.47238C42.0982 11.8829 39.336 14.6452 35.9254 14.6452V15.1584C38.3196 15.1584 40.4132 13.8955 41.5951 12.0045C42.2333 10.978 42.6115 9.77245 42.6115 8.47576C42.6115 7.09127 42.1894 5.80472 41.4701 4.73765V4.73427Z" fill="var(--fill-0, #F79C00)"/>
<path id="Vector_20" d="M84.1903 5.99045H23.6039V37.6749H84.1903V5.99045Z" fill="var(--fill-0, #B5D6FF)"/>
<path id="Vector_21" d="M77.2137 31.8026H66.2188V33.7713H77.2137V31.8026Z" fill="var(--fill-0, #89B9F5)"/>
<path id="Vector_22" d="M77.2173 29.2971H71.183V30.1345H77.2173V29.2971Z" fill="var(--fill-0, #89B9F5)"/>
<path id="Vector_23" d="M77.2136 27.8383H73.2999V28.6757H77.2136V27.8383Z" fill="var(--fill-0, #89B9F5)"/>
<path id="Vector_24" d="M75.4881 20.0784H69.5754C68.6205 20.0784 67.8464 20.8525 67.8464 21.8073V21.858C67.8464 22.8128 68.6205 23.5869 69.5754 23.5869H75.4881C76.443 23.5869 77.217 22.8128 77.217 21.858V21.8073C77.217 20.8525 76.443 20.0784 75.4881 20.0784Z" fill="var(--fill-0, #89B9F5)"/>
<path id="Vector_25" d="M30.5804 15.8237H34.4941V14.9862H30.5804V15.8237Z" fill="var(--fill-0, #89B9F5)"/>
<path id="Vector_26" d="M32.3059 23.5869H38.2186C39.1735 23.5869 39.9475 22.8128 39.9475 21.858V21.8073C39.9475 20.8525 39.1735 20.0784 38.2186 20.0784H32.3059C31.351 20.0784 30.5769 20.8525 30.5769 21.8073V21.858C30.5769 22.8128 31.351 23.5869 32.3059 23.5869Z" fill="var(--fill-0, #89B9F5)"/>
<path id="Vector_27" d="M33.4132 33.4269C33.7433 33.4269 34.0109 33.1593 34.0109 32.8292C34.0109 32.4991 33.7433 32.2315 33.4132 32.2315C33.0831 32.2315 32.8155 32.4991 32.8155 32.8292C32.8155 33.1593 33.0831 33.4269 33.4132 33.4269Z" fill="var(--fill-0, #89B9F5)"/>
<path id="Vector_28" d="M31.1778 33.4269C31.5079 33.4269 31.7755 33.1593 31.7755 32.8292C31.7755 32.4991 31.5079 32.2315 31.1778 32.2315C30.8477 32.2315 30.5801 32.4991 30.5801 32.8292C30.5801 33.1593 30.8477 33.4269 31.1778 33.4269Z" fill="var(--fill-0, #89B9F5)"/>
<path id="Vector_29" d="M82.1371 32.5962V11.0658C80.4656 11.0658 79.1149 9.71168 79.1149 8.04354H27.9396C27.9396 9.45842 26.9671 10.6403 25.6569 10.9712V32.6907C26.9671 33.0217 27.9396 34.2069 27.9396 35.6184H79.1115C79.1115 33.9469 80.4656 32.5962 82.1338 32.5962H82.1371Z" stroke="var(--stroke-0, #498FE4)" stroke-width="0.675358" stroke-miterlimit="10"/>
<path id="Vector_30" d="M53.8971 28.7906C57.7407 28.7906 60.8566 25.6747 60.8566 21.831C60.8566 17.9873 57.7407 14.8714 53.8971 14.8714C50.0534 14.8714 46.9375 17.9873 46.9375 21.831C46.9375 25.6747 50.0534 28.7906 53.8971 28.7906Z" fill="var(--fill-0, #89B9F5)"/>
<path id="Vector_31" d="M53.8969 30.2156C58.5275 30.2156 62.2814 26.4617 62.2814 21.831C62.2814 17.2003 58.5275 13.4464 53.8969 13.4464C49.2662 13.4464 45.5123 17.2003 45.5123 21.831C45.5123 26.4617 49.2662 30.2156 53.8969 30.2156Z" stroke="var(--stroke-0, #89B9F5)" stroke-width="0.337679" stroke-miterlimit="10"/>
<path id="Vector_32" d="M96.5118 14.8883H35.9254V46.5727H96.5118V14.8883Z" fill="var(--fill-0, #F4F9FF)"/>
<path id="Vector_33" d="M89.5356 40.7005H78.5408V42.6692H89.5356V40.7005Z" fill="var(--fill-0, #89B9F5)"/>
<path id="Vector_34" d="M89.5391 38.1949H83.5047V39.0323H89.5391V38.1949Z" fill="var(--fill-0, #89B9F5)"/>
<path id="Vector_35" d="M89.5356 36.7395H85.6219V37.577H89.5356V36.7395Z" fill="var(--fill-0, #89B9F5)"/>
<path id="Vector_36" d="M87.8099 28.9762H81.8971C80.9422 28.9762 80.1682 29.7503 80.1682 30.7052V30.7558C80.1682 31.7107 80.9422 32.4847 81.8971 32.4847H87.8099C88.7647 32.4847 89.5388 31.7107 89.5388 30.7558V30.7052C89.5388 29.7503 88.7647 28.9762 87.8099 28.9762Z" fill="var(--fill-0, #89B9F5)"/>
<path id="Vector_37" d="M86.7023 20.3317C87.0324 20.3317 87.3 20.0641 87.3 19.734C87.3 19.4039 87.0324 19.1363 86.7023 19.1363C86.3722 19.1363 86.1046 19.4039 86.1046 19.734C86.1046 20.0641 86.3722 20.3317 86.7023 20.3317Z" fill="var(--fill-0, #89B9F5)"/>
<path id="Vector_38" d="M88.9379 20.3317C89.268 20.3317 89.5356 20.0641 89.5356 19.734C89.5356 19.4039 89.268 19.1363 88.9379 19.1363C88.6078 19.1363 88.3402 19.4039 88.3402 19.734C88.3402 20.0641 88.6078 20.3317 88.9379 20.3317Z" fill="var(--fill-0, #89B9F5)"/>
<path id="Vector_39" d="M42.902 20.7605H53.8969V18.7919H42.902V20.7605Z" fill="var(--fill-0, #89B9F5)"/>
<path id="Vector_40" d="M42.8986 23.2661H48.9329V22.4287H42.8986V23.2661Z" fill="var(--fill-0, #89B9F5)"/>
<path id="Vector_41" d="M42.9019 24.7249H46.8156V23.8875H42.9019V24.7249Z" fill="var(--fill-0, #89B9F5)"/>
<path id="Vector_42" d="M44.6276 32.4882H50.5404C51.4952 32.4882 52.2693 31.7141 52.2693 30.7592V30.7086C52.2693 29.7537 51.4952 28.9797 50.5404 28.9797H44.6276C43.6727 28.9797 42.8987 29.7537 42.8987 30.7086V30.7592C42.8987 31.7141 43.6727 32.4882 44.6276 32.4882Z" fill="var(--fill-0, #89B9F5)"/>
<path id="Vector_43" d="M45.7354 42.3247C46.0655 42.3247 46.3331 42.0571 46.3331 41.727C46.3331 41.3969 46.0655 41.1293 45.7354 41.1293C45.4053 41.1293 45.1377 41.3969 45.1377 41.727C45.1377 42.0571 45.4053 42.3247 45.7354 42.3247Z" fill="var(--fill-0, #89B9F5)"/>
<path id="Vector_44" d="M43.4997 42.3247C43.8298 42.3247 44.0974 42.0571 44.0974 41.727C44.0974 41.3969 43.8298 41.1293 43.4997 41.1293C43.1696 41.1293 42.902 41.3969 42.902 41.727C42.902 42.0571 43.1696 42.3247 43.4997 42.3247Z" fill="var(--fill-0, #89B9F5)"/>
<path id="Vector_45" d="M94.4589 41.4974V19.967C92.7874 19.967 91.4366 18.6129 91.4366 16.9448H40.2614C40.2614 18.3596 39.2888 19.5415 37.9786 19.8724V41.592C39.2888 41.9229 40.2614 43.1081 40.2614 44.5196H91.4333C91.4333 42.8481 92.7873 41.4974 94.4555 41.4974H94.4589Z" stroke="var(--stroke-0, #89B9F5)" stroke-width="0.675358" stroke-miterlimit="10"/>
<path id="Vector_46" d="M66.2186 37.6917C70.0622 37.6917 73.1781 34.5758 73.1781 30.7322C73.1781 26.8885 70.0622 23.7726 66.2186 23.7726C62.3749 23.7726 59.259 26.8885 59.259 30.7322C59.259 34.5758 62.3749 37.6917 66.2186 37.6917Z" fill="var(--fill-0, #89B9F5)"/>
<path id="Vector_47" d="M66.2188 39.1168C70.8495 39.1168 74.6034 35.3629 74.6034 30.7322C74.6034 26.1015 70.8495 22.3476 66.2188 22.3476C61.5881 22.3476 57.8342 26.1015 57.8342 30.7322C57.8342 35.3629 61.5881 39.1168 66.2188 39.1168Z" stroke="var(--stroke-0, #89B9F5)" stroke-width="0.337679" stroke-miterlimit="10"/>
<path id="Vector_48" d="M57.5371 13.0277H7.33429C6.87842 13.0277 6.50697 12.6562 6.50697 12.2003H4.05542C4.05542 13.5544 5.15288 14.6519 6.50697 14.6519H57.5371V52.3605H59.0465V14.5371C59.0465 13.703 58.3711 13.0277 57.5371 13.0277Z" fill="var(--fill-0, #FF945F)"/>
<path id="Vector_49" d="M57.537 14.6519H6.50697C5.15288 14.6519 4.05542 13.5544 4.05542 12.2003V50.0238C4.05542 51.3137 5.10223 52.3605 6.39216 52.3605H55.9364C56.5578 52.3605 57.1183 52.1174 57.537 51.7257V14.6519Z" fill="var(--fill-0, #CE6429)"/>
<path id="Vector_50" d="M6.50697 14.6519C5.15288 14.6519 4.05542 13.5544 4.05542 12.2003V50.0238C4.05542 51.3137 5.10223 52.3605 6.39216 52.3605H30.7118V14.6519H6.50697Z" fill="var(--fill-0, #D77637)"/>
<path id="Vector_51" d="M4.05542 42.0749H25.6399C26.7812 42.0749 27.7065 43.0001 27.7065 44.1415V44.1989C27.7065 45.3402 26.7812 46.2655 25.6399 46.2655H4.05542V42.0749Z" fill="var(--fill-0, #F7BF00)"/>
<path id="Vector_52" d="M4.05542 46.2654H25.6129C26.7711 46.2654 27.7098 45.3267 27.7098 44.1684H4.05542V46.2654Z" fill="var(--fill-0, #F79C00)"/>
<path id="Vector_53" d="M53.1778 16.3369H8.24617C6.95562 16.3369 5.90943 17.3831 5.90943 18.6737V48.4806C5.90943 49.7712 6.95562 50.8173 8.24617 50.8173H53.1778C54.4683 50.8173 55.5145 49.7712 55.5145 48.4806V18.6737C55.5145 17.3831 54.4683 16.3369 53.1778 16.3369Z" stroke="var(--stroke-0, #FFBA00)" stroke-width="0.675358" stroke-miterlimit="10" stroke-dasharray="1.01 1.01"/>
</g>
<defs>
<clipPath id="clip0_0_103">
<rect width="96.5121" height="55.3963" fill="white"/>
</clipPath>
</defs>
</svg>
