<svg preserveAspectRatio="none" width="100%" height="100%" overflow="visible" style="display: block;" viewBox="0 0 20 17.6153" fill="none" xmlns="http://www.w3.org/2000/svg">
<g id="Group 1686560630">
<path id="Vector" d="M18.4618 1.2568H15.6673V0.707523C15.6674 0.614661 15.6492 0.522682 15.6138 0.436848C15.5784 0.351013 15.5263 0.273008 15.4607 0.207294C15.3951 0.141581 15.3172 0.0894479 15.2314 0.0538783C15.1456 0.0183086 15.0537 0 14.9608 0C14.868 0 14.776 0.0183086 14.6902 0.0538783C14.6044 0.0894479 14.5265 0.141581 14.4609 0.207294C14.3953 0.273008 14.3433 0.351013 14.3078 0.436848C14.2724 0.522682 14.2542 0.614661 14.2544 0.707523V1.2568H6.54642V2.66971H14.2544V3.21932C14.2542 3.31218 14.2724 3.40416 14.3078 3.49C14.3433 3.57583 14.3953 3.65384 14.4609 3.71955C14.5265 3.78526 14.6044 3.8374 14.6902 3.87297C14.776 3.90854 14.868 3.92684 14.9608 3.92684C15.0537 3.92684 15.1456 3.90854 15.2314 3.87297C15.3172 3.8374 15.3951 3.78526 15.4607 3.71955C15.5263 3.65384 15.5784 3.57583 15.6138 3.49C15.6492 3.40416 15.6674 3.31218 15.6673 3.21932V2.66971H18.4618C18.4951 2.6698 18.527 2.68309 18.5505 2.70666C18.574 2.73024 18.5871 2.76217 18.5871 2.79545V5.00899H1.4129V2.79545C1.41286 2.76217 1.42603 2.73024 1.44952 2.70666C1.47301 2.68309 1.50489 2.6698 1.53817 2.66971H4.33271V3.21932C4.33271 3.40668 4.40714 3.58637 4.53962 3.71886C4.67211 3.85134 4.8518 3.92577 5.03916 3.92577H5.03932C5.14996 3.92572 5.25902 3.89952 5.35761 3.84931C5.36366 3.84624 5.36998 3.84371 5.37592 3.84048C5.38312 3.83656 5.38984 3.8319 5.39688 3.82775C5.40943 3.82035 5.42217 3.8132 5.43421 3.80506C5.43974 3.80132 5.44481 3.79698 5.45024 3.79307C5.46321 3.78378 5.47626 3.77458 5.48854 3.76443C5.56904 3.69823 5.63386 3.615 5.67834 3.52074C5.72282 3.42649 5.74585 3.32354 5.74578 3.21932V0.707655C5.74589 0.614857 5.72768 0.52295 5.6922 0.437202C5.65672 0.351455 5.60466 0.273555 5.53901 0.207967C5.50339 0.172718 5.46415 0.141324 5.42194 0.114305C5.31533 0.045319 5.19208 0.00637386 5.06519 0.00157419C4.93829 -0.00322547 4.81245 0.0262981 4.70094 0.087033C4.58942 0.147768 4.49635 0.237464 4.43154 0.346667C4.36674 0.45587 4.33259 0.580534 4.33271 0.707519V1.2568H1.53818C1.13032 1.25735 0.739324 1.41965 0.450964 1.7081C0.162605 1.99654 0.000425207 2.38759 0 2.79545V16.0767C0.000426521 16.4845 0.162607 16.8756 0.450967 17.164C0.739327 17.4525 1.13032 17.6148 1.53818 17.6153H18.4618C18.8697 17.6148 19.2607 17.4525 19.549 17.164C19.8374 16.8756 19.9996 16.4845 20 16.0767V2.79545C19.9996 2.38759 19.8374 1.99654 19.549 1.7081C19.2607 1.41965 18.8697 1.25735 18.4618 1.2568ZM18.5871 16.0767C18.5871 16.11 18.574 16.1419 18.5505 16.1655C18.527 16.189 18.4951 16.2023 18.4618 16.2024H1.53818C1.5049 16.2023 1.47302 16.189 1.44953 16.1655C1.42605 16.1419 1.41287 16.11 1.41291 16.0767V6.42188H18.5871L18.5871 16.0767Z" fill="var(--fill-0, #034DA2)"/>
<path id="Vector_2" d="M8.94131 13.1314C9.05575 13.2453 9.21056 13.3095 9.37205 13.3098C9.53354 13.3102 9.68865 13.2468 9.80362 13.1334L12.5423 10.4131C12.6569 10.2988 12.7215 10.1437 12.7219 9.9818C12.7224 9.81991 12.6586 9.66446 12.5446 9.5495L12.4901 9.49492C12.4337 9.43801 12.3666 9.39278 12.2926 9.36182C12.2187 9.33085 12.1394 9.31476 12.0592 9.31445C11.9791 9.31415 11.8996 9.32964 11.8255 9.36004C11.7513 9.39044 11.6838 9.43515 11.6269 9.49163L9.37505 11.7289L8.45954 10.8133C8.40284 10.7566 8.3355 10.7115 8.26138 10.6808C8.18725 10.6501 8.1078 10.6343 8.02756 10.6343C7.94732 10.6343 7.86787 10.6502 7.79376 10.6809C7.71965 10.7117 7.65233 10.7568 7.59567 10.8136L7.54183 10.868C7.42724 10.9825 7.3628 11.1378 7.36266 11.2997C7.36253 11.4617 7.42671 11.6171 7.54111 11.7318L8.94131 13.1314Z" fill="var(--fill-0, #034DA2)"/>
</g>
</svg>
