<svg preserveAspectRatio="none" width="100%" height="100%" overflow="visible" style="display: block;" viewBox="0 0 14.3621 14.6535" fill="none" xmlns="http://www.w3.org/2000/svg">
<path id="Vector" d="M0.610564 0C0.448633 0 0.293333 0.0643272 0.17883 0.17883C0.0643272 0.293333 0 0.448632 0 0.610564C0 0.772496 0.0643272 0.927795 0.17883 1.0423C0.293333 1.1568 0.448633 1.22113 0.610564 1.22113H0.910962C1.04354 1.22136 1.17244 1.26474 1.27819 1.34471C1.38393 1.42468 1.46078 1.53689 1.4971 1.6644L3.43381 8.44166C3.54335 8.82412 3.77444 9.16053 4.09213 9.40001C4.40982 9.63949 4.79684 9.76902 5.19468 9.76903H10.774C11.1402 9.76909 11.4979 9.65941 11.8011 9.45415C12.1044 9.24889 12.3391 8.95747 12.475 8.6175L14.275 4.11642C14.349 3.93121 14.3765 3.73069 14.3551 3.53239C14.3337 3.3341 14.2641 3.14406 14.1523 2.97889C14.0405 2.81372 13.8899 2.67845 13.7138 2.58491C13.5376 2.49136 13.3412 2.44238 13.1418 2.44226H2.98932L2.67061 1.32859C2.56135 0.946097 2.33054 0.60957 2.01308 0.369876C1.69562 0.130181 1.30875 0.00034725 0.910962 0H0.610564ZM4.60854 8.10463L3.33857 3.66339H13.1418L11.3406 8.16446C11.2953 8.27765 11.2171 8.37466 11.1161 8.44299C11.0151 8.51133 10.896 8.54787 10.774 8.5479H5.19468C5.0621 8.54767 4.9332 8.50429 4.82745 8.42432C4.72171 8.34435 4.64487 8.23213 4.60854 8.10463ZM5.49508 14.6535C5.73562 14.6535 5.97381 14.6062 6.19604 14.5141C6.41827 14.4221 6.62019 14.2871 6.79028 14.1171C6.96037 13.947 7.09529 13.745 7.18734 13.5228C7.27939 13.3006 7.32677 13.0624 7.32677 12.8218C7.32677 12.5813 7.27939 12.3431 7.18734 12.1209C7.09529 11.8987 6.96037 11.6967 6.79028 11.5266C6.62019 11.3566 6.41827 11.2216 6.19604 11.1296C5.97381 11.0375 5.73562 10.9902 5.49508 10.9902C5.00928 10.9902 4.54338 11.1831 4.19988 11.5266C3.85637 11.8702 3.66339 12.3361 3.66339 12.8218C3.66339 13.3076 3.85637 13.7735 4.19988 14.1171C4.54338 14.4606 5.00928 14.6535 5.49508 14.6535ZM5.49508 13.4324C5.33315 13.4324 5.17785 13.3681 5.06334 13.2536C4.94884 13.1391 4.88451 12.9838 4.88451 12.8218C4.88451 12.6599 4.94884 12.5046 5.06334 12.3901C5.17785 12.2756 5.33315 12.2113 5.49508 12.2113C5.65701 12.2113 5.81231 12.2756 5.92681 12.3901C6.04132 12.5046 6.10564 12.6599 6.10564 12.8218C6.10564 12.9838 6.04132 13.1391 5.92681 13.2536C5.81231 13.3681 5.65701 13.4324 5.49508 13.4324ZM10.3796 14.6535C10.6201 14.6535 10.8583 14.6062 11.0806 14.5141C11.3028 14.4221 11.5047 14.2871 11.6748 14.1171C11.8449 13.947 11.9798 13.745 12.0719 13.5228C12.1639 13.3006 12.2113 13.0624 12.2113 12.8218C12.2113 12.5813 12.1639 12.3431 12.0719 12.1209C11.9798 11.8987 11.8449 11.6967 11.6748 11.5266C11.5047 11.3566 11.3028 11.2216 11.0806 11.1296C10.8583 11.0375 10.6201 10.9902 10.3796 10.9902C9.8938 10.9902 9.4279 11.1831 9.08439 11.5266C8.74088 11.8702 8.5479 12.3361 8.5479 12.8218C8.5479 13.3076 8.74088 13.7735 9.08439 14.1171C9.4279 14.4606 9.8938 14.6535 10.3796 14.6535ZM10.3796 13.4324C10.2177 13.4324 10.0624 13.3681 9.94786 13.2536C9.83335 13.1391 9.76903 12.9838 9.76903 12.8218C9.76903 12.6599 9.83335 12.5046 9.94786 12.3901C10.0624 12.2756 10.2177 12.2113 10.3796 12.2113C10.5415 12.2113 10.6968 12.2756 10.8113 12.3901C10.9258 12.5046 10.9902 12.6599 10.9902 12.8218C10.9902 12.9838 10.9258 13.1391 10.8113 13.2536C10.6968 13.3681 10.5415 13.4324 10.3796 13.4324Z" fill="#034DA2"/>
</svg>
