<svg preserveAspectRatio="none" width="100%" height="100%" overflow="visible" style="display: block;" viewBox="0 0 19.0718 22.7496" fill="none" xmlns="http://www.w3.org/2000/svg">
<g id="Group">
<path id="Vector" d="M2.79065 8.62591H11.6478C11.8564 8.62591 12.027 8.45528 12.027 8.24675C12.027 8.03821 11.8564 7.86759 11.6478 7.86759H2.79065C2.58212 7.86759 2.41149 8.03821 2.41149 8.24675C2.41149 8.45528 2.58212 8.62591 2.79065 8.62591Z" fill="var(--fill-0, #F5821E)"/>
<path id="Vector_2" d="M2.79065 10.9691H11.6478C11.8564 10.9691 12.027 10.7985 12.027 10.59C12.027 10.3814 11.8564 10.2108 11.6478 10.2108H2.79065C2.58212 10.2108 2.41149 10.3814 2.41149 10.59C2.41149 10.7985 2.58212 10.9691 2.79065 10.9691Z" fill="var(--fill-0, #F5821E)"/>
<path id="Vector_3" d="M9.26293 12.9332C9.26293 12.7246 9.0923 12.554 8.88376 12.554H2.79065C2.58212 12.554 2.41149 12.7246 2.41149 12.9332C2.41149 13.1417 2.58212 13.3123 2.79065 13.3123H8.88376C9.0923 13.3123 9.26293 13.1417 9.26293 12.9332Z" fill="var(--fill-0, #F5821E)"/>
<path id="Vector_4" d="M6.88559 14.8972H2.79065C2.58212 14.8972 2.41149 15.0678 2.41149 15.2764C2.41149 15.4849 2.58212 15.6555 2.79065 15.6555H6.88559C7.09413 15.6555 7.26475 15.4849 7.26475 15.2764C7.26475 15.0678 7.09413 14.8972 6.88559 14.8972Z" fill="var(--fill-0, #F5821E)"/>
<path id="Vector_5" d="M6.88559 6.06654H2.79065C2.58212 6.06654 2.41149 6.23716 2.41149 6.4457C2.41149 6.65424 2.58212 6.82486 2.79065 6.82486H6.88559C7.09413 6.82486 7.26475 6.65424 7.26475 6.4457C7.26475 6.23716 7.09413 6.06654 6.88559 6.06654Z" fill="var(--fill-0, #F5821E)"/>
<path id="Vector_6" d="M6.88559 4.17076H2.79065C2.58212 4.17076 2.41149 4.34138 2.41149 4.54992C2.41149 4.75846 2.58212 4.92908 2.79065 4.92908H6.88559C7.09413 4.92908 7.26475 4.75846 7.26475 4.54992C7.26475 4.34138 7.09413 4.17076 6.88559 4.17076Z" fill="var(--fill-0, #F5821E)"/>
<path id="Vector_7" d="M14.4422 12.7133V5.37271C14.4422 5.27412 14.4043 5.17933 14.3323 5.10729L9.38422 0.113748C9.31218 0.0417076 9.2136 0 9.11502 0H0.379161C0.166831 0 0 0.170622 0 0.379161V17.7258C0 17.9343 0.166831 18.1049 0.379161 18.1049H9.06952C9.26289 20.6984 11.4317 22.7496 14.0631 22.7496C16.8271 22.7496 19.0718 20.4936 19.0718 17.7258C19.0718 15.083 17.0281 12.9066 14.4422 12.7133ZM15.9665 16.975L13.9228 19.0111C13.8469 19.0832 13.7522 19.1211 13.6536 19.1211C13.5588 19.1211 13.4602 19.0832 13.3882 19.0111L12.1597 17.7902C12.0118 17.6423 12.0118 17.4035 12.1597 17.2518C12.3076 17.1039 12.5464 17.1039 12.6943 17.2518L13.6536 18.2073L15.4318 16.4366C15.5797 16.2887 15.8186 16.2887 15.9665 16.4366C16.1143 16.5883 16.1143 16.8271 15.9665 16.975ZM0.758321 0.758321H8.73586V5.37271C8.73586 5.58124 8.90269 5.75187 9.11502 5.75187H13.6839V12.7133C11.2232 12.899 9.25531 14.8745 9.06952 17.3466H0.758321V0.758321Z" fill="var(--fill-0, #034DA2)"/>
</g>
</svg>
