<svg preserveAspectRatio="none" width="100%" height="100%" overflow="visible" style="display: block;" viewBox="0 0 20.1732 20" fill="none" xmlns="http://www.w3.org/2000/svg">
<g id="Group 1686560633">
<g id="Group 1686560632">
<path id="Vector" fill-rule="evenodd" clip-rule="evenodd" d="M10.1655 17.2493C10.0898 17.2763 10.0088 17.2907 9.92589 17.2907H1.80111C1.32382 17.2907 0.865434 17.1016 0.527735 16.763C0.189114 16.4253 0 15.9669 0 15.4896V1.80111C0 1.32382 0.189116 0.865433 0.527735 0.527735C0.865434 0.189114 1.32382 0 1.80111 0H13.3282C13.8055 0 14.2639 0.189116 14.6016 0.527735C14.9402 0.865433 15.1294 1.32382 15.1294 1.80111V8.27152L18.8199 9.76285C19.7069 10.1204 20.2536 11.0182 20.1635 11.9701L20.1626 11.9728C19.706 16.5973 16.6044 18.8953 15.1545 19.7276C15.1509 19.7294 15.1464 19.7312 15.1428 19.7339C14.4971 20.0887 13.7127 20.0887 13.067 19.7339C13.0625 19.7312 13.0589 19.7294 13.0544 19.7276C12.3268 19.3088 11.1821 18.519 10.1655 17.2493ZM13.6884 8.01949V1.80107C13.6884 1.70561 13.6505 1.61375 13.583 1.5462C13.5155 1.47866 13.4236 1.44084 13.3281 1.44084H1.80101C1.70556 1.44084 1.6137 1.47866 1.54615 1.5462C1.4786 1.61375 1.44078 1.7056 1.44078 1.80107V15.4895C1.44078 15.585 1.47861 15.6768 1.54615 15.7444C1.61369 15.8119 1.70555 15.8498 1.80101 15.8498H9.22979C8.65073 14.7952 8.20316 13.5146 8.05005 11.9764C7.95549 11.0281 8.50123 10.1339 9.37837 9.77455C10.7373 9.2189 13.1572 8.23383 13.6884 8.01949ZM10.8084 15.6841C11.7738 17.1673 13.0211 18.0444 13.7704 18.4767C13.9821 18.5883 14.2342 18.5865 14.4477 18.4722C15.6949 17.7544 18.3381 15.785 18.7288 11.8342C18.7586 11.5172 18.5757 11.2182 18.2804 11.0984L14.0972 9.40807C13.3803 9.69894 11.1919 10.5833 9.92942 11.1065C9.92672 11.1074 9.92582 11.1074 9.92312 11.1083C9.63224 11.2263 9.45302 11.5217 9.48366 11.8342C9.64125 13.4218 10.1609 14.6891 10.8084 15.6841ZM11.7378 14.3423C11.4568 14.0613 11.4568 13.6039 11.7378 13.3229C12.0187 13.0419 12.4762 13.0419 12.7572 13.3229L13.7415 14.3081L16.1198 12.4052C16.4305 12.1567 16.8843 12.2071 17.1329 12.5178C17.3814 12.8285 17.331 13.2824 17.0203 13.5309L14.1385 15.8363C13.8522 16.0651 13.4379 16.0426 13.1785 15.7832L11.7378 14.3423Z" fill="var(--fill-0, #034DA2)"/>
<path id="Vector_2" d="M2.68923 4.03343C2.68923 4.40485 3.04017 4.70566 3.47349 4.70566H6.61055C7.04386 4.70566 7.39481 4.40485 7.39481 4.03343C7.39481 3.66202 7.04386 3.36121 6.61055 3.36121H3.47349C3.04017 3.36121 2.68923 3.66202 2.68923 4.03343Z" fill="var(--fill-0, #034DA2)"/>
<path id="Vector_3" d="M2.68923 6.72612C2.68923 7.09754 3.04018 7.39835 3.47349 7.39835L11.0921 7.39441C11.5254 7.39441 11.8763 7.0936 11.8763 6.72218C11.8763 6.35077 11.5254 6.04996 11.0921 6.04996L3.47349 6.0539C3.04018 6.0539 2.68923 6.35471 2.68923 6.72612Z" fill="var(--fill-0, #034DA2)"/>
</g>
</g>
</svg>
