<svg preserveAspectRatio="none" width="100%" height="100%" overflow="visible" style="display: block;" viewBox="0 0 24 27.3319" fill="none" xmlns="http://www.w3.org/2000/svg">
<g id="Group 1686560624">
<path id="Vector" d="M2.81859 6.8551C2.64863 6.85864 2.51053 6.99673 2.51408 7.16669L2.52116 7.71553C2.5247 7.88549 2.66279 8.02004 2.82921 8.02004H2.83275C3.00271 8.0165 3.14081 7.87841 3.13727 7.70845L3.13018 7.15961C3.13018 6.98965 2.98855 6.85156 2.81859 6.8551ZM0.30458 15.1761C0.134619 15.1797 -0.00347425 15.3177 6.66072e-05 15.4877L0.00714821 16.0365C0.0106891 16.2065 0.148782 16.3411 0.315203 16.3411H0.318744C0.488705 16.3375 0.626798 16.1994 0.623257 16.0295L0.616176 15.4806C0.616176 15.3107 0.474541 15.1726 0.30458 15.1761ZM2.81859 21.5532C2.64863 21.5567 2.51053 21.6948 2.51408 21.8648L2.52116 22.4136C2.5247 22.5836 2.66279 22.7181 2.82921 22.7181H2.83275C3.00271 22.7146 3.14081 22.5765 3.13727 22.4065L3.13018 21.8577C3.13018 21.6878 2.98855 21.5497 2.81859 21.5532ZM3.13373 19.2835C3.13373 19.1136 2.99563 18.9755 2.82567 18.9755H2.42909V18.5789C2.42909 18.4089 2.291 18.2708 2.12104 18.2708C1.95108 18.2708 1.81299 18.4089 1.81299 18.5789V18.9755H1.41641C1.24645 18.9755 1.10835 19.1136 1.10835 19.2835C1.10835 19.4535 1.24645 19.5916 1.41641 19.5916H1.81299V19.9881C1.81299 20.1581 1.95108 20.2962 2.12104 20.2962C2.291 20.2962 2.42909 20.1581 2.42909 19.9881V19.5916H2.82567C2.99563 19.5916 3.13373 19.4535 3.13373 19.2835ZM20.707 2.43611C20.5335 2.43965 20.3954 2.57774 20.3989 2.74771L20.406 3.29654C20.4096 3.4665 20.5477 3.60105 20.7141 3.60105H20.7176C20.8876 3.59751 21.0257 3.45942 21.0221 3.28946L21.0151 2.74062C21.0151 2.57066 20.877 2.43611 20.707 2.43611ZM20.707 19.4004C20.5335 19.4039 20.3954 19.542 20.3989 19.712L20.406 20.2608C20.4096 20.4307 20.5477 20.5653 20.7141 20.5653H20.7176C20.8876 20.5618 21.0257 20.4237 21.0221 20.2537L21.0151 19.7049C21.0151 19.5385 20.877 19.4004 20.707 19.4004ZM21.8861 8.38475C21.7126 8.38829 21.5745 8.52638 21.5781 8.69635L21.5851 9.24518C21.5887 9.41514 21.7268 9.54969 21.8932 9.54969H21.8967C22.0667 9.54615 22.2048 9.40806 22.2012 9.2381L22.1942 8.68926C22.1906 8.52284 22.0525 8.38475 21.8861 8.38475ZM23.6919 4.95366H23.1431V4.40483C23.1431 4.23487 23.005 4.09677 22.8351 4.09677C22.6651 4.09677 22.527 4.23487 22.527 4.40483V4.95366H21.9782C21.8082 4.95366 21.6701 5.09175 21.6701 5.26171C21.6701 5.43168 21.8082 5.56977 21.9782 5.56977H22.527V6.12214C22.527 6.2921 22.6651 6.4302 22.8351 6.4302C23.005 6.4302 23.1431 6.2921 23.1431 6.12214V5.57331H23.6919C23.8619 5.57331 24 5.43522 24 5.26525C24 5.09175 23.8619 4.95366 23.6919 4.95366ZM17.1626 0H6.37361C5.25116 0 4.34116 0.913541 4.34116 2.03245V25.2994C4.34116 26.4219 5.2547 27.3319 6.37361 27.3319H17.1626C18.2851 27.3319 19.1951 26.4183 19.1951 25.2994V2.03245C19.1951 0.91 18.2851 0 17.1626 0ZM10.4279 1.92623H13.1083C13.2783 1.92623 13.4164 2.06432 13.4164 2.23428C13.4164 2.40424 13.2783 2.54234 13.1083 2.54234H10.4279C10.2579 2.54234 10.1198 2.4007 10.1198 2.23428C10.1198 2.06432 10.2579 1.92623 10.4279 1.92623ZM12.0425 25.3915H11.4937C11.3237 25.3915 11.1856 25.2534 11.1856 25.0834C11.1856 24.9135 11.3237 24.7754 11.4937 24.7754H12.0425C12.216 24.7754 12.3541 24.9135 12.3506 25.0834C12.3506 25.2534 12.2125 25.3915 12.0425 25.3915ZM18.5754 22.8916H4.96081V4.41899H18.5754V22.8916Z" fill="var(--fill-0, #034DA2)"/>
<g id="Vector_2">
<path d="M12.68 12.8675C12.68 13.0375 12.5419 13.1756 12.3719 13.1756C12.202 13.1756 12.0639 13.0375 12.0639 12.864V6.54707C12.0639 6.37711 12.202 6.23901 12.3719 6.23901C12.5419 6.23901 12.68 6.37711 12.68 6.54707V12.8675Z" fill="var(--fill-0, #F5821E)"/>
<path d="M11.3274 12.8675C11.3274 13.0375 11.1893 13.1756 11.0193 13.1756C10.8494 13.1756 10.7113 13.0375 10.7113 12.8675V8.31396C10.7113 8.14399 10.8494 8.0059 11.0193 8.0059C11.1893 8.0059 11.3274 8.14399 11.3274 8.31396V12.8675Z" fill="var(--fill-0, #F5821E)"/>
<path d="M15.4702 15.9233H10.5378C10.3678 15.9233 10.2297 15.7852 10.2297 15.6152C10.2297 15.4452 10.3678 15.3071 10.5378 15.3071H15.4666C15.6401 15.3071 15.7782 15.4488 15.7782 15.6152C15.7782 15.7852 15.6401 15.9233 15.4702 15.9233Z" fill="var(--fill-0, #F5821E)"/>
<path d="M14.0326 12.8675C14.0326 13.0375 13.8945 13.1756 13.7245 13.1756C13.5546 13.1756 13.4165 13.0375 13.4165 12.8675V7.25524C13.4165 7.08528 13.5546 6.94718 13.7245 6.94718C13.8945 6.94718 14.0326 7.08528 14.0326 7.25524V12.8675Z" fill="var(--fill-0, #F5821E)"/>
<path d="M16.7378 12.864C16.7378 13.0339 16.5997 13.172 16.4297 13.172C16.2598 13.172 16.1217 13.0339 16.1217 12.864V11.136C16.1217 10.9661 16.2598 10.828 16.4297 10.828C16.5997 10.828 16.7378 10.9696 16.7378 11.136V12.864Z" fill="var(--fill-0, #F5821E)"/>
<path d="M15.4702 18.2071H10.5378C10.3678 18.2071 10.2297 18.069 10.2297 17.8991C10.2297 17.7291 10.3678 17.591 10.5378 17.591H15.4666C15.6401 17.591 15.7782 17.7291 15.7782 17.8991C15.7782 18.069 15.6401 18.2071 15.4702 18.2071Z" fill="var(--fill-0, #F5821E)"/>
<path d="M15.3852 12.8675C15.3852 13.0375 15.2471 13.1756 15.0771 13.1756C14.9072 13.1756 14.7691 13.0375 14.7691 12.8675V9.72676C14.7691 9.5568 14.9072 9.4187 15.0771 9.4187C15.2471 9.4187 15.3852 9.5568 15.3852 9.72676V12.8675Z" fill="var(--fill-0, #F5821E)"/>
<path d="M7.27309 12.864C7.27309 13.0339 7.135 13.172 6.96504 13.172C6.79507 13.172 6.65698 13.0339 6.65698 12.864V11.136C6.65698 10.9661 6.79507 10.828 6.96504 10.828C7.135 10.828 7.27309 10.9696 7.27309 11.136V12.864Z" fill="var(--fill-0, #F5821E)"/>
<path d="M15.4702 20.491H10.5378C10.3678 20.491 10.2297 20.3529 10.2297 20.1829C10.2297 20.0129 10.3678 19.8749 10.5378 19.8749H15.4666C15.6401 19.8749 15.7782 20.0129 15.7782 20.1829C15.7782 20.3529 15.6401 20.491 15.4702 20.491Z" fill="var(--fill-0, #F5821E)"/>
<path d="M8.6257 12.8675C8.6257 13.0375 8.48761 13.1756 8.31764 13.1756C8.14414 13.1756 8.00605 13.0375 8.00959 12.8675V9.72676C8.00959 9.5568 8.14768 9.4187 8.31764 9.4187C8.48761 9.4187 8.6257 9.5568 8.6257 9.72676V12.8675Z" fill="var(--fill-0, #F5821E)"/>
<path d="M9.52862 20.1865C9.52862 20.7317 9.08247 21.1779 8.53718 21.1779C7.99189 21.1779 7.54574 20.7317 7.54574 20.1865C7.54574 19.6412 7.99189 19.195 8.53718 19.195C9.08247 19.195 9.52862 19.6412 9.52862 20.1865Z" fill="var(--fill-0, #F5821E)"/>
<path d="M9.97477 12.864C9.97477 13.0339 9.83667 13.172 9.66671 13.172C9.49675 13.172 9.35866 13.0339 9.35866 12.864V7.60578C9.35866 7.43582 9.49675 7.29773 9.66671 7.29773C9.84021 7.29773 9.97831 7.43582 9.97477 7.60933V12.864Z" fill="var(--fill-0, #F5821E)"/>
<path d="M9.52862 15.6187C9.52862 16.164 9.08247 16.6102 8.53718 16.6102C7.99189 16.6102 7.54574 16.164 7.54574 15.6187C7.54574 15.0735 7.99189 14.6273 8.53718 14.6273C9.08247 14.6273 9.52508 15.0735 9.52862 15.6187Z" fill="var(--fill-0, #F5821E)"/>
<path d="M9.52862 17.9026C9.52862 18.4479 9.08247 18.894 8.53718 18.894C7.99189 18.894 7.54574 18.4479 7.54574 17.9026C7.54574 17.3573 7.99189 16.9112 8.53718 16.9112C9.08247 16.9112 9.52508 17.3573 9.52862 17.9026Z" fill="var(--fill-0, #F5821E)"/>
</g>
</g>
</svg>
