<svg preserveAspectRatio="none" width="100%" height="100%" overflow="visible" style="display: block;" viewBox="0 0 20 19.9814" fill="none" xmlns="http://www.w3.org/2000/svg">
<g id="Group 1686560637">
<path id="Vector" d="M4.73926 1.64355C7.36488 -0.0134331 10.616 -0.339116 13.5186 0.764648C16.4202 1.86846 18.6334 4.27313 19.4941 7.25586C20.3538 10.2384 19.7611 13.4527 17.8926 15.9316C16.0238 18.4109 13.0965 19.8668 9.99219 19.8623C6.98549 19.8613 4.14312 18.4908 2.27051 16.1396C0.397244 13.7885 -0.302766 10.7115 0.369141 7.78125V7.78027C0.41523 7.57744 0.617496 7.4506 0.820312 7.49707H0.821289C1.02473 7.54308 1.15128 7.74492 1.10547 7.94824C0.95162 8.61837 0.874126 9.30292 0.875977 9.99023C0.876921 12.7261 2.10619 15.3174 4.22559 17.0479C6.34406 18.7783 9.1284 19.4655 11.8096 18.9189C14.4898 18.3723 16.7839 16.6509 18.0566 14.2285C19.3292 11.8069 19.4475 8.94166 18.3779 6.42383C17.3074 3.90612 15.1632 2.00307 12.5361 1.23828C10.0739 0.521367 7.43113 0.877567 5.25293 2.20215L4.82324 2.48047C4.67428 2.58425 4.4707 2.56637 4.3418 2.4375L3.8418 1.9375L3.80664 2.17188L3.41504 4.80762L3.3916 4.95996L3.5459 4.94336L6.27832 4.64258L6.52539 4.61523L6.15918 4.24902C6.0975 4.18734 6.05876 4.10632 6.0498 4.02148L6.05078 3.93555C6.06637 3.81959 6.13653 3.71736 6.23926 3.65918L6.24121 3.65723C7.89235 2.67718 9.86294 2.38117 11.7295 2.83301C13.5962 3.28594 15.2118 4.45082 16.2305 6.07813C17.25 7.70638 17.5924 9.66825 17.1836 11.5449C16.7756 13.4217 15.6485 15.0639 14.0449 16.1211C12.4414 17.1782 10.4875 17.5661 8.60156 17.2021C6.71659 16.8372 5.04779 15.7496 3.95312 14.1709C3.8345 13.9998 3.87722 13.7637 4.04883 13.6445C4.2198 13.5259 4.45597 13.5688 4.5752 13.7402C5.53453 15.1256 6.98754 16.0913 8.63672 16.4395C10.2858 16.7867 12.0048 16.49 13.4414 15.6104C14.8789 14.7298 15.9251 13.3343 16.3652 11.707C16.8055 10.0807 16.6057 8.34723 15.8086 6.86328C15.0115 5.37831 13.6768 4.25611 12.0771 3.72461C10.4782 3.19322 8.73567 3.29421 7.20898 4.00586L7.05469 4.07813L7.17578 4.19824L7.62695 4.65039C7.72903 4.75247 7.76389 4.90501 7.71582 5.04297C7.66775 5.17942 7.54487 5.27642 7.40039 5.29199L2.97363 5.76172C2.88628 5.77125 2.79897 5.75037 2.72656 5.70313L2.65918 5.64746C2.57932 5.5613 2.54364 5.44403 2.5625 5.3291V5.32813L2.8877 3.2207L3.20508 1.08594C3.22263 0.981422 3.2833 0.890281 3.36914 0.833008L3.46289 0.788086C3.59847 0.745627 3.74589 0.782031 3.8457 0.881836L4.6582 1.69434L4.73926 1.64355Z" fill="#034DA2" stroke="#F6F6F7" stroke-width="0.238523"/>
<path id="Vector_2" d="M9.90967 5.41075C11.1239 5.41257 12.2887 5.89452 13.147 6.75352C14.006 7.61162 14.4879 8.77657 14.4897 9.99083C14.4896 11.2103 14.0854 12.3736 13.231 13.2291C12.3735 14.0856 11.1268 14.5698 9.91064 14.5699C8.69675 14.5699 7.53158 14.087 6.67236 13.2291C5.81428 12.3701 5.33068 11.2048 5.33057 9.99083C5.33057 8.77695 5.81353 7.61176 6.67139 6.75255C7.53035 5.89449 8.69572 5.41089 9.90967 5.41075Z" fill="#F5821E" stroke="#F6F6F7" stroke-width="0.238523"/>
<path id="Vector_3" d="M9.91064 7.12799C10.1193 7.12824 10.2876 7.29787 10.2876 7.50592V9.82623L10.3257 9.86139L11.3374 10.7979C11.4887 10.9404 11.4971 11.1782 11.356 11.3301C11.214 11.4827 10.9754 11.4923 10.8228 11.3516H10.8237L9.65283 10.2676H9.65186C9.57524 10.1962 9.53204 10.0959 9.53271 9.99127V7.50592C9.53271 7.29772 9.7018 7.12799 9.91064 7.12799Z" fill="white" stroke="#F5821E" stroke-width="0.238523"/>
</g>
</svg>
