<svg preserveAspectRatio="none" width="100%" height="100%" overflow="visible" style="display: block;" viewBox="0 0 18.041 16.7111" fill="none" xmlns="http://www.w3.org/2000/svg">
<g id="Group 1686560592">
<path id="Vector" d="M16.5033 2.12385H14.1949V0.989294C14.1949 0.444134 13.7508 0 13.2056 0C12.6605 0 12.2163 0.444134 12.2163 0.989294V2.12385H5.82394V0.989294C5.82394 0.444134 5.37981 0 4.83465 0C4.28949 0 3.84536 0.444134 3.84536 0.989294V2.12385H1.53695C0.688738 2.12385 0 2.81428 0 3.66081V15.1742C0 16.0224 0.690426 16.7111 1.53695 16.7111H16.5041C17.3523 16.7111 18.041 16.0207 18.041 15.1742L18.0402 3.66252C18.0402 2.8143 17.3499 2.12385 16.5033 2.12385ZM12.669 0.989294C12.669 0.694594 12.9086 0.454991 13.2033 0.454991C13.498 0.454991 13.7376 0.694594 13.7376 0.989294V3.71424C13.7376 4.00894 13.498 4.24854 13.2033 4.24854C12.9086 4.24854 12.669 4.00894 12.669 3.71424V0.989294ZM4.29793 0.989294C4.29793 0.694594 4.53754 0.454991 4.83224 0.454991C5.12694 0.454991 5.36654 0.694594 5.36654 0.989294V3.71424C5.36654 4.00894 5.12694 4.24854 4.83224 4.24854C4.53754 4.24854 4.29793 4.00894 4.29793 3.71424V0.989294ZM1.53452 2.57885H3.84292V3.71341C3.84292 4.25857 4.28705 4.7027 4.83221 4.7027C5.37737 4.7027 5.82151 4.25857 5.82151 3.71341V2.57885H12.2139V3.71341C12.2139 4.25857 12.658 4.7027 13.2032 4.7027C13.7484 4.7027 14.1925 4.25857 14.1925 3.71341V2.57885H16.5009C17.097 2.57885 17.582 3.06389 17.582 3.65998V5.98334H0.453345V3.66254C0.453345 3.06645 0.938428 2.57885 1.53452 2.57885ZM16.5033 16.257H1.53452C0.938428 16.257 0.453388 15.772 0.453388 15.1759V6.43916H17.5853V15.1742C17.5844 15.7719 17.0994 16.257 16.5033 16.257Z" fill="#034DA2"/>
<path id="Vector_2" d="M12.9276 7.79161L7.50617 13.2139L5.11014 10.8179C4.86218 10.5699 4.45812 10.5699 4.20849 10.8179C3.96053 11.0659 3.96053 11.4699 4.20849 11.7195L7.05526 14.5663C7.17464 14.6857 7.33743 14.7525 7.50608 14.7525C7.67473 14.7525 7.83752 14.6865 7.9569 14.5663L13.83 8.69325C14.0779 8.44529 14.0779 8.04123 13.83 7.79161C13.582 7.54198 13.1781 7.54198 12.9276 7.79161Z" fill="#F5821E"/>
</g>
</svg>
