<svg preserveAspectRatio="none" width="100%" height="100%" overflow="visible" style="display: block;" viewBox="0 0 15.5 19" fill="none" xmlns="http://www.w3.org/2000/svg">
<g id="Group 1686560636">
<g id="Group">
<path id="Vector" d="M10.0963 17.5903C10.5964 18.0904 11.2876 18.3998 12.0508 18.3998C12.8141 18.3998 13.5052 18.0904 14.0053 17.5903C14.5054 17.0902 14.8148 16.399 14.8148 15.6358C14.8148 14.8794 14.5113 14.1941 14.0202 13.6952C13.4533 13.1642 12.84 12.8718 12.0508 12.8718C11.2876 12.8718 10.5964 13.1812 10.0963 13.6813C9.59625 14.1807 9.2868 14.8721 9.2868 15.6358C9.2868 16.37 9.57806 17.072 10.0963 17.5903ZM1.87465 15.2623C1.70906 15.2623 1.57465 15.1279 1.57465 14.9623C1.57465 14.7967 1.70906 14.6623 1.87465 14.6623H7.2116C7.37719 14.6623 7.5116 14.7967 7.5116 14.9623C7.5116 15.1279 7.37719 15.2623 7.2116 15.2623H1.87465ZM1.87465 12.2316C1.70906 12.2316 1.57465 12.0972 1.57465 11.9316C1.57465 11.766 1.70906 11.6316 1.87465 11.6316H7.2116C7.37719 11.6316 7.5116 11.766 7.5116 11.9316C7.5116 12.0972 7.37719 12.2316 7.2116 12.2316H1.87465ZM9.43444 17.7505H1.13504C0.82394 17.7505 0.540001 17.6229 0.334253 17.4174C0.127323 17.21 0 16.9265 0 16.6152V1.13505C0 0.822999 0.127559 0.539532 0.332836 0.334019C0.539529 0.12756 0.822995 0 1.13504 0H9.18168C9.26459 0 9.33948 0.0335436 9.39381 0.0878747L12.2792 2.97286C12.3378 3.03121 12.3669 3.10822 12.3669 3.18499L12.3671 12.2864C13.1696 12.3613 13.891 12.7185 14.4296 13.257C15.065 13.9478 15.4148 14.6817 15.4148 15.6358C15.4148 16.5644 15.0381 17.4061 14.4296 18.0146C13.8211 18.6231 12.9794 18.9998 12.0508 18.9998C11.1222 18.9998 10.2806 18.6231 9.67208 18.0146C9.58845 17.9309 9.50908 17.8428 9.43444 17.7505ZM11.7671 12.2836V3.90925H9.85255C9.54097 3.90925 9.2568 3.78145 9.05129 3.57546C8.84506 3.37066 8.71751 3.08648 8.71751 2.77396V0.600005H1.13504C0.987405 0.600005 0.853467 0.660006 0.756616 0.756621C0.660002 0.853472 0.600002 0.98741 0.600002 1.13505V16.6152C0.600002 16.7631 0.660002 16.8972 0.756144 16.9931C0.853231 17.0905 0.987405 17.1505 1.13504 17.1505H9.04633C8.81648 16.6953 8.6868 16.1805 8.6868 15.6358C8.6868 14.7077 9.06357 13.867 9.67208 13.2582C10.218 12.7114 10.9514 12.3518 11.7671 12.2836ZM1.87465 9.20039C1.70906 9.20039 1.57465 9.06598 1.57465 8.90039C1.57465 8.7348 1.70906 8.60039 1.87465 8.60039H10.4925C10.6581 8.60039 10.7925 8.7348 10.7925 8.90039C10.7925 9.06598 10.6581 9.20039 10.4925 9.20039H1.87465ZM1.87465 6.16942C1.70906 6.16942 1.57465 6.03501 1.57465 5.86942C1.57465 5.70383 1.70906 5.56942 1.87465 5.56942H10.4391C10.6047 5.56942 10.7391 5.70383 10.7391 5.86942C10.7391 6.03501 10.6047 6.16942 10.4391 6.16942H1.87465ZM1.87465 3.13822C1.70906 3.13822 1.57465 3.00381 1.57465 2.83821C1.57465 2.67262 1.70906 2.53821 1.87465 2.53821H7.2116C7.37719 2.53821 7.5116 2.67262 7.5116 2.83821C7.5116 3.00381 7.37719 3.13822 7.2116 3.13822H1.87465ZM11.7671 3.30924L9.31751 0.860086V2.77396C9.31751 2.92089 9.37798 3.05507 9.47483 3.15192C9.57074 3.24924 9.70467 3.30924 9.85255 3.30924H11.7671Z" fill="#034DA2"/>
</g>
<ellipse id="Ellipse 5945" cx="12" cy="15.5" rx="3.49998" ry="3.5" fill="#F5821E"/>
<g id="Vector_2">
<path d="M12.0501 17.0221C11.8845 17.0221 11.7501 17.1565 11.7501 17.3221C11.7501 17.4891 11.8824 17.6247 12.0501 17.6247C12.2157 17.6247 12.3501 17.4903 12.3501 17.3247C12.3501 17.1577 12.2178 17.0221 12.0501 17.0221Z" fill="white"/>
<path d="M12.0501 13.5C11.8845 13.5 11.7501 13.6344 11.7501 13.8V16.2402C11.7501 16.4058 11.8845 16.5402 12.0501 16.5402C12.2157 16.5402 12.3501 16.4058 12.3501 16.2402V13.8C12.3501 13.6344 12.2157 13.5 12.0501 13.5Z" fill="white"/>
</g>
</g>
</svg>
