<svg preserveAspectRatio="none" width="100%" height="100%" overflow="visible" style="display: block;" viewBox="0 0 29.5 19.5396" fill="none" xmlns="http://www.w3.org/2000/svg">
<g id="Group 1686560635">
<path id="Vector" d="M14.9583 7.44105C16.266 7.44105 17.3251 8.50138 17.3251 9.80786C17.3251 11.1155 16.266 12.1747 14.9583 12.1747C13.6506 12.1747 12.5915 11.1155 12.5915 9.80786C12.5915 8.50138 13.6506 7.44105 14.9583 7.44105Z" fill="var(--fill-0, #034DA2)"/>
<path id="Vector_2" fill-rule="evenodd" clip-rule="evenodd" d="M21.7473 6.02115C22.0325 6.82825 22.6716 7.46726 23.4786 7.75246V11.8635C22.6715 12.1487 22.0325 12.7878 21.7473 13.5948H8.16905C7.88385 12.7877 7.24481 12.1487 6.43775 11.8635V7.75246C7.24484 7.46726 7.88385 6.82822 8.16905 6.02115H21.7473ZM14.9582 6.49452C13.1286 6.49452 11.6445 7.97849 11.6445 9.8082C11.6445 11.6379 13.1285 13.1219 14.9582 13.1219C16.7879 13.1219 18.2719 11.6379 18.2719 9.8082C18.2719 7.97849 16.7879 6.49452 14.9582 6.49452ZM8.33113 9.33468C8.0696 9.33468 7.85777 9.54651 7.85777 9.80804C7.85777 10.0696 8.0696 10.2814 8.33113 10.2814H10.2246C10.4861 10.2814 10.6979 10.0696 10.6979 9.80804C10.6979 9.54651 10.4861 9.33468 10.2246 9.33468H8.33113ZM19.6918 9.33468C19.4303 9.33468 19.2184 9.54651 19.2184 9.80804C19.2184 10.0696 19.4303 10.2814 19.6918 10.2814H21.5852C21.8468 10.2814 22.0586 10.0696 22.0586 9.80804C22.0586 9.54651 21.8468 9.33468 21.5852 9.33468H19.6918Z" fill="var(--fill-0, #F5821E)"/>
<path id="Vector_3" fill-rule="evenodd" clip-rule="evenodd" d="M25.3722 3.18098C25.8953 3.18098 26.3189 3.60462 26.3189 4.1277V15.4884C26.3189 16.0114 25.8953 16.4351 25.3722 16.4351H4.54429C4.02122 16.4351 3.59757 16.0114 3.59757 15.4884V4.1277C3.59757 3.878 3.69461 3.65079 3.85319 3.48157C3.85555 3.4792 3.85674 3.47683 3.8591 3.47565C3.9088 3.42358 3.96443 3.37624 4.02478 3.33719C4.02715 3.33601 4.02951 3.33364 4.0307 3.33246C4.05792 3.31589 4.08513 3.29932 4.11354 3.28512C4.12182 3.28157 4.12892 3.27802 4.13602 3.27447C4.16087 3.26264 4.18572 3.25199 4.21176 3.24252C4.22004 3.23897 4.22833 3.2366 4.23543 3.23305C4.26146 3.22477 4.2875 3.21767 4.31353 3.21057C4.323 3.2082 4.33247 3.20465 4.34193 3.20228C4.40702 3.18927 4.47447 3.18098 4.5443 3.18098L25.3722 3.18098ZM7.38446 5.07442C7.38446 6.12054 6.53714 6.96787 5.49102 6.96787V12.6482C6.53714 12.6482 7.38446 13.4955 7.38446 14.5416H22.532C22.532 13.4955 23.3793 12.6482 24.4255 12.6482V6.96787C23.3793 6.96787 22.532 6.12054 22.532 5.07442H7.38446Z" fill="var(--fill-0, #034DA2)"/>
<path id="Vector_4" d="M1.59523 0.106143C1.78102 -0.0453326 2.05438 -0.0346808 2.22833 0.138095C2.40111 0.312056 2.41176 0.585433 2.26029 0.771203L2.22833 0.807887L1.61652 1.4197H9.94071C10.2022 1.4197 10.4141 1.63153 10.4141 1.89306C10.4141 2.15459 10.2022 2.36642 9.94071 2.36642H1.61652L2.22833 2.97823L2.26029 3.01491C2.41176 3.20071 2.40111 3.47407 2.22833 3.64802C2.05437 3.8208 1.781 3.83145 1.59523 3.67997L1.55854 3.64802L0.138458 2.22794L0.106506 2.19125C0.10414 2.18889 0.101773 2.18652 0.100589 2.18415C0.093489 2.17587 0.0875717 2.1664 0.0804714 2.15812C0.0650872 2.13327 0.0508868 2.10842 0.0390523 2.0812C0.0295851 2.05871 0.0213012 2.03623 0.0153842 2.01137C0.0142009 2.00782 0.0130174 2.00427 0.0130174 2.00072C0.0118338 1.99717 0.0106506 1.99481 0.0106506 1.99244C0.0094673 1.98534 0.00828375 1.97706 0.00710042 1.96996C0.00591679 1.96404 0.00473354 1.95812 0.00355021 1.9522C0.00236658 1.94392 0.00236673 1.93564 0.0011834 1.92854C0.0011834 1.92025 0.00118333 1.91079 0 1.9025V1.89303V1.88357C0.00118333 1.87647 0.0011834 1.86818 0.0011834 1.86108C0.00236673 1.8528 0.00236658 1.84333 0.00355021 1.83505C0.00473354 1.82795 0.00591679 1.82085 0.00710042 1.81375C0.00828375 1.80665 0.0094673 1.79955 0.0106506 1.79363C0.011834 1.78653 0.0142009 1.78061 0.0153842 1.77351C0.0236681 1.74156 0.0355016 1.70961 0.0508863 1.68002C0.0520697 1.67647 0.0544367 1.67174 0.0568033 1.66701C0.0639039 1.65399 0.0721876 1.64097 0.0816548 1.62795C0.0982226 1.6031 0.117158 1.57943 0.138458 1.55813L1.55854 0.138047L1.59523 0.106143Z" fill="var(--fill-0, #034DA2)"/>
<path id="Vector_5" d="M27.2716 15.8915C27.4456 15.7187 27.719 15.7081 27.9047 15.8595L27.9414 15.8915L29.3615 17.3116C29.3828 17.3329 29.4017 17.3565 29.4183 17.3814C29.4278 17.3944 29.4349 17.4074 29.4432 17.4205C29.4455 17.4252 29.4467 17.4299 29.4491 17.4335C29.4645 17.4631 29.4751 17.495 29.4834 17.527C29.4858 17.5341 29.4869 17.54 29.4893 17.5471C29.4905 17.553 29.4905 17.5601 29.4917 17.566C29.494 17.5743 29.4952 17.5826 29.4964 17.5909C29.4964 17.5968 29.4976 17.6027 29.4976 17.6074C29.4976 17.6133 29.4988 17.6181 29.5 17.624V17.637V17.6465V17.6559C29.4988 17.6642 29.4988 17.6725 29.4976 17.682C29.4976 17.6879 29.4976 17.695 29.4964 17.7021C29.4952 17.7128 29.4929 17.7246 29.4905 17.7352C29.4905 17.7376 29.4905 17.7412 29.4893 17.7435C29.4881 17.7471 29.4881 17.7506 29.4869 17.7542C29.4858 17.7577 29.4858 17.7613 29.4846 17.7648C29.4775 17.7897 29.4704 17.8122 29.4609 17.8346C29.4491 17.8619 29.4349 17.8867 29.4195 17.9116C29.4124 17.9198 29.4065 17.9281 29.3994 17.9376C29.397 17.94 29.3958 17.9423 29.3935 17.9447L29.3615 17.9814L27.9414 19.4015L27.9047 19.4334C27.7189 19.5849 27.4456 19.5742 27.2716 19.4015C27.0989 19.2275 27.0882 18.9541 27.2397 18.7684L27.2716 18.7317L27.8834 18.1199H19.5592C19.2977 18.1199 19.0859 17.908 19.0859 17.6465C19.0859 17.385 19.2977 17.1731 19.5592 17.1731H27.8834L27.2716 16.5613L27.2397 16.5247C27.0882 16.3389 27.0989 16.0654 27.2716 15.8915Z" fill="var(--fill-0, #034DA2)"/>
</g>
</svg>
