<svg preserveAspectRatio="none" width="100%" height="100%" overflow="visible" style="display: block;" viewBox="0 0 21.25 17.0372" fill="none" xmlns="http://www.w3.org/2000/svg">
<path id="Vector" d="M20.5939 7.86781H19.5155V6.55297C19.5155 6.55031 19.5128 6.54766 19.5128 6.545C19.5075 5.33109 18.6708 4.31641 17.5445 4.02422V0.656094C17.5445 0.294844 17.2523 0 16.8884 0H2.62437C1.94437 0 1.26969 0.278906 0.767656 0.767656C0.278906 1.25641 0 1.93109 0 2.61641V14.4208C0 15.8631 1.17672 17.0372 2.62437 17.0372H16.8937C17.595 17.0372 18.2538 16.7636 18.7478 16.2695C19.2445 15.7755 19.5155 15.1167 19.5155 14.4208V14.4181V13.1113H20.5939C20.9552 13.1113 21.25 12.8164 21.25 12.4552V8.52391C21.25 8.16 20.9578 7.86781 20.5939 7.86781ZM1.68938 1.70266C1.94172 1.45562 2.28437 1.31219 2.62437 1.31219H16.2377V3.93125H2.62437C1.89922 3.93125 1.31219 3.34156 1.31219 2.61906C1.31219 2.27641 1.45031 1.93906 1.68938 1.70266ZM18.2059 14.4208C18.2059 14.7661 18.0705 15.0928 17.8208 15.3425C17.5737 15.5895 17.2444 15.7277 16.8937 15.7277H2.62437C1.89922 15.7277 1.31219 15.1433 1.31219 14.4234V4.87422C1.7 5.1 2.14359 5.24078 2.62437 5.24078H16.8937C17.6162 5.24078 18.2059 5.83047 18.2059 6.55297V6.55563V7.86516H15.4381C14.7369 7.86516 14.0808 8.13875 13.592 8.6275C13.0953 9.11359 12.8217 9.775 12.8217 10.4842C12.8217 11.9319 13.9958 13.1086 15.4408 13.1086H18.2086V14.4155C18.2059 14.4181 18.2059 14.4181 18.2059 14.4208ZM19.9378 11.7991H15.4381C14.7183 11.7991 14.1313 11.2094 14.1313 10.4842C14.1313 10.1309 14.2641 9.80422 14.5137 9.55984C14.7634 9.31016 15.0848 9.17734 15.4381 9.17734H19.9405V11.7991H19.9378Z" fill="var(--fill-0, #034DA2)"/>
</svg>
